<?xml version="1.0" standalone="no"?>
<!DOCTYPE svg PUBLIC "-//W3C//DTD SVG 20010904//EN"
 "http://www.w3.org/TR/2001/REC-SVG-20010904/DTD/svg10.dtd">
<svg version="1.0" xmlns="http://www.w3.org/2000/svg"
 width="700.000000pt" height="851.000000pt" viewBox="0 0 700.000000 851.000000"
 preserveAspectRatio="xMidYMid meet">

<g transform="translate(0.000000,851.000000) scale(0.100000,-0.100000)"
fill="#000000" stroke="none">
<path d="M0 4828 c0 -2025 2 -3679 5 -3677 2 3 15 46 28 97 16 61 21 94 14
101 -11 11 6 73 53 194 35 87 36 80 10 -43 -23 -108 -22 -103 -12 -96 5 3 17
42 26 88 26 117 50 202 80 281 27 70 27 86 1 40 -18 -32 -16 -22 14 82 12 39
26 77 32 85 9 13 10 12 5 -3 -3 -10 -8 -37 -11 -60 l-5 -42 11 35 c78 250 107
317 199 450 67 97 120 183 120 195 0 3 -5 3 -10 0 -13 -8 -14 -11 19 82 16 45
39 97 52 115 52 75 152 199 174 216 13 10 40 49 61 86 49 90 124 194 242 334
120 144 166 189 287 289 53 43 111 90 129 105 l33 28 5 -78 c4 -57 14 -95 37
-146 17 -38 29 -72 26 -76 -3 -5 4 -24 15 -43 11 -19 18 -41 15 -50 -4 -8 -2
-18 4 -22 7 -4 8 1 4 12 -4 11 8 5 29 -16 21 -21 34 -41 31 -50 -4 -13 -3 -13
5 -3 11 16 51 -30 125 -144 26 -39 56 -79 67 -89 14 -12 17 -22 10 -30 -7 -8
-5 -12 5 -12 8 0 12 4 9 9 -12 20 13 5 65 -39 31 -26 58 -48 60 -50 3 -2 6
-18 7 -36 1 -17 3 -35 3 -39 1 -5 6 -8 12 -8 5 0 7 6 3 12 -11 17 -12 48 -2
42 4 -3 8 -12 8 -20 0 -8 5 -13 12 -11 7 1 33 -34 59 -78 26 -44 60 -100 75
-125 15 -25 27 -49 26 -53 -2 -5 2 -6 7 -3 5 4 11 2 13 -2 1 -5 64 -50 138
-100 76 -51 163 -119 200 -157 83 -85 238 -206 360 -280 115 -71 107 -64 90
-76 -12 -8 -11 -9 5 -5 11 3 26 2 34 -3 11 -7 10 -11 -5 -20 -11 -6 -14 -11
-9 -11 6 0 17 6 24 13 11 10 38 -14 146 -126 82 -86 135 -134 140 -127 5 8 11
6 22 -7 8 -10 6 -3 -4 15 -10 19 -25 39 -33 45 -11 9 -10 4 3 -15 25 -41 4
-34 -33 9 -18 21 -57 64 -88 96 -53 56 -54 58 -37 77 22 24 13 27 -10 4 -15
-15 -17 -15 -30 2 -12 16 -11 22 3 39 17 20 17 20 -6 1 -20 -17 -27 -15 -23 6
0 4 -5 5 -12 3 -15 -5 -61 31 -53 43 3 5 -5 8 -17 8 -16 -1 -21 4 -19 19 2 16
1 17 -7 5 -8 -12 -12 -12 -29 3 -10 9 -21 17 -24 17 -15 0 -143 91 -143 102 0
6 -7 13 -15 15 -13 4 -13 3 0 -6 8 -6 10 -11 4 -11 -17 0 -89 61 -86 72 1 5
-3 6 -9 3 -6 -5 -45 26 -93 73 -44 44 -121 108 -169 143 -49 35 -104 75 -122
89 -19 14 -32 30 -30 37 2 7 -1 10 -8 8 -26 -9 -96 77 -152 189 -31 63 -106
143 -191 207 -56 41 -85 75 -161 189 -28 41 -68 93 -89 115 -56 57 -94 109
-94 128 0 8 -6 28 -14 44 -68 134 -70 144 -76 378 -4 121 -8 204 -9 185 -1
-19 -5 -28 -8 -20 -3 8 -23 40 -43 70 -65 99 -89 176 -104 340 -2 25 -3 -4 -2
-63 l2 -108 -42 -39 c-39 -35 -94 -60 -136 -60 -29 0 -21 13 20 35 57 31 80
87 87 215 3 58 9 122 14 142 5 22 5 36 0 32 -5 -3 -9 6 -9 20 0 38 1 41 11 39
5 -2 9 2 9 7 0 6 -7 10 -15 10 -8 0 -15 3 -16 8 0 4 -2 23 -3 42 -1 19 -5 58
-9 85 l-6 50 13 -50 c23 -84 47 -148 72 -192 32 -56 50 -66 23 -13 -12 23 -22
55 -23 70 -1 16 -3 26 -5 24 -6 -6 -37 84 -45 131 -4 22 -10 49 -13 60 -5 18
-6 18 -15 -4 -4 -13 -10 -22 -11 -20 -2 2 -1 72 3 156 l5 152 70 103 c39 56
103 139 144 183 40 44 81 91 89 105 18 27 112 139 154 182 26 28 27 28 33 7 9
-26 -24 -89 -129 -253 -42 -66 -76 -124 -76 -130 0 -6 21 23 46 64 25 41 71
113 103 159 31 47 65 103 76 125 21 39 55 66 42 32 -4 -9 -2 -16 3 -16 6 0 10
6 10 12 0 7 13 -1 28 -18 l29 -31 32 68 c51 111 117 297 141 399 12 52 25 102
30 110 4 9 13 49 19 90 7 41 17 94 23 118 6 23 8 45 5 49 -4 3 -8 0 -11 -8
-25 -86 -26 -86 -20 -24 6 69 52 273 95 422 16 56 26 110 23 120 -4 13 -3 14
3 5 7 -9 13 -2 21 25 6 20 10 39 8 41 -2 2 -7 -6 -11 -17 -3 -12 -12 -21 -20
-21 -15 0 -45 -69 -45 -104 0 -13 -6 -29 -14 -35 -14 -12 -19 -28 -30 -91 -5
-32 -24 -80 -31 -80 -7 0 4 72 18 125 14 51 12 45 25 77 6 15 16 73 22 130 13
124 39 237 79 343 38 98 137 272 144 253 3 -7 3 1 0 18 -3 20 0 35 8 39 8 6
10 4 5 -6 -4 -8 2 -3 13 11 11 14 21 29 21 34 1 30 102 175 173 247 141 145
206 195 320 249 111 52 122 56 112 40 -3 -5 -2 -10 4 -10 10 0 73 31 81 41 11
12 128 9 183 -6 32 -8 74 -27 94 -42 31 -23 33 -28 19 -39 -24 -17 -19 -24 15
-22 23 2 36 -3 50 -22 20 -26 62 -177 54 -190 -3 -5 -16 -3 -29 3 -17 8 -23
18 -21 37 4 32 -13 54 -30 40 -10 -8 -13 -6 -11 6 0 9 -6 19 -14 21 -13 4 -13
3 0 -6 8 -6 12 -11 8 -11 -4 0 -29 16 -55 37 -55 41 -162 93 -245 117 -70 20
-68 20 -68 -5 0 -16 4 -19 20 -14 25 8 100 -15 177 -54 63 -31 89 -53 53 -44
-11 3 -23 9 -26 14 -3 5 -17 6 -31 3 -18 -5 -24 -3 -19 5 4 6 2 11 -3 11 -6 0
-11 -4 -11 -10 0 -6 -26 -10 -57 -10 -64 0 -129 -15 -139 -31 -4 -8 1 -8 17
-3 13 5 53 9 89 9 l65 0 0 -48 c0 -45 1 -47 33 -53 32 -6 45 -24 17 -24 -28 0
-161 -59 -280 -124 -41 -22 -230 -151 -240 -162 -5 -7 -38 -33 -72 -58 -58
-42 -77 -66 -53 -66 5 0 38 20 73 45 36 25 69 45 73 45 5 0 -6 -10 -23 -21
-18 -12 -33 -26 -33 -31 0 -6 8 -4 17 3 11 10 14 10 9 2 -4 -7 -4 -13 1 -13 4
0 21 -12 36 -25 24 -22 26 -27 16 -47 -12 -22 -11 -22 7 -8 15 12 14 9 -4 -20
-27 -41 -132 -253 -132 -266 0 -16 -112 -149 -122 -146 -6 2 -8 -4 -5 -12 3
-8 -1 -20 -9 -27 -20 -16 -86 -157 -110 -231 -9 -32 -19 -56 -21 -54 -6 5 20
87 51 165 14 35 23 69 19 75 -3 6 -2 8 2 4 5 -5 21 14 37 42 30 53 37 78 13
46 -13 -17 -15 -18 -15 -3 0 9 -4 17 -10 17 -5 0 -10 -6 -10 -13 0 -7 -9 -19
-20 -27 -11 -8 -20 -21 -20 -30 0 -8 -5 -22 -10 -30 -8 -11 -9 -7 -5 15 l6 30
-29 -33 c-27 -30 -31 -32 -40 -17 -5 11 -12 13 -16 7 -3 -5 1 -15 9 -22 8 -7
15 -17 15 -22 0 -5 -8 -2 -17 8 -17 16 -18 16 -32 -19 -7 -20 -17 -37 -22 -37
-4 0 -1 12 7 28 7 15 14 36 13 47 -1 28 -28 -35 -82 -191 -45 -129 -84 -291
-73 -302 3 -3 6 1 7 9 0 8 4 6 9 -6 8 -18 9 -17 9 8 1 16 5 47 11 70 5 23 16
80 25 127 9 46 21 91 26 100 8 11 9 9 4 -10 -18 -74 -45 -238 -44 -269 1 -25
3 -29 6 -13 4 22 5 23 18 5 14 -17 14 -16 15 7 1 23 2 23 10 5 6 -14 9 -15 10
-5 1 10 4 9 10 -5 7 -17 9 -17 9 -2 1 9 6 17 11 17 6 0 10 12 10 27 0 14 3 24
6 21 9 -10 -16 -238 -31 -288 -8 -25 -24 -99 -36 -165 -11 -66 -34 -186 -50
-266 -16 -81 -29 -164 -30 -185 0 -35 -16 -94 -18 -69 -1 6 -14 -14 -30 -43
-16 -28 -41 -66 -55 -83 -14 -17 -26 -35 -26 -41 0 -6 -2 -9 -6 -6 -4 5 36
113 73 197 4 9 2 12 -6 7 -8 -5 -10 3 -6 31 13 102 27 155 59 230 43 101 82
224 89 283 5 34 2 28 -13 -25 -24 -91 -64 -204 -84 -241 -16 -28 -16 -23 -12
96 3 79 1 115 -4 97 -5 -16 -6 -36 -3 -45 4 -15 3 -15 -6 -2 -5 8 -8 25 -4 37
3 13 1 23 -5 23 -11 0 -13 -9 -33 -145 -12 -82 -58 -241 -84 -292 -8 -15 -15
-32 -15 -37 0 -14 -70 -126 -129 -206 -31 -41 -55 -79 -53 -84 2 -5 -4 -17
-13 -26 -9 -10 -17 -24 -19 -32 -3 -22 -17 -39 -27 -33 -5 4 -9 2 -9 -4 0 -10
-57 -71 -67 -71 -17 0 -150 -110 -180 -149 -24 -31 -34 -39 -30 -23 3 12 1 22
-4 22 -5 0 -9 -9 -9 -19 0 -11 -3 -27 -6 -35 -5 -13 -2 -15 12 -9 18 7 18 6 2
-11 -10 -9 -18 -24 -18 -32 0 -8 -4 -14 -10 -14 -5 0 -11 -10 -11 -22 -1 -19
-2 -20 -6 -4 -9 34 -42 -60 -44 -125 -1 -33 -6 -62 -11 -65 -4 -3 -8 -12 -8
-20 0 -25 18 -6 25 26 8 38 25 39 23 3 -1 -29 24 -129 42 -172 9 -20 7 -28
-11 -47 -12 -13 -20 -26 -17 -30 6 -5 105 103 145 160 24 34 25 36 13 108 -8
47 -11 114 -6 191 4 79 2 117 -5 117 -5 0 -7 5 -4 10 4 6 11 7 17 4 7 -4 8 -2
4 4 -10 17 -36 0 -61 -37 -11 -17 -24 -31 -28 -31 -4 0 3 15 17 33 28 37 103
107 109 101 2 -2 17 9 34 25 18 16 34 27 36 25 2 -3 -4 -33 -14 -68 -27 -101
-34 -245 -15 -353 16 -95 68 -224 105 -265 12 -12 21 -27 21 -32 0 -13 69 -79
99 -95 24 -13 28 -31 6 -31 -8 0 -15 -7 -15 -16 0 -9 5 -12 11 -8 8 5 10 -4 7
-28 -2 -22 1 -35 8 -35 7 0 10 6 7 14 -3 7 0 13 6 13 6 0 11 16 11 35 0 19 4
43 10 53 38 67 60 144 77 266 9 74 20 133 24 130 3 -2 9 -21 13 -42 6 -43 63
-192 79 -207 13 -14 5 15 -28 94 -15 36 -34 100 -43 142 -15 73 -15 87 1 206
10 70 27 166 37 213 10 47 29 132 41 190 12 58 26 110 31 116 4 6 13 44 20 85
14 89 23 104 31 51 12 -75 77 -140 92 -93 9 28 18 26 57 -13 33 -33 33 -33 35
-142 4 -170 36 -381 87 -578 26 -98 49 -183 52 -188 5 -8 74 -237 74 -246 0
-2 -7 1 -15 8 -8 7 -15 17 -15 23 0 5 -16 34 -35 63 -19 29 -63 105 -96 169
-34 64 -63 114 -65 112 -5 -4 35 -109 47 -123 5 -7 9 -16 7 -20 -1 -5 6 -24
15 -42 10 -18 15 -38 11 -44 -4 -6 -3 -8 4 -4 18 11 46 -58 33 -83 -6 -11 -11
-31 -11 -44 0 -28 -24 -54 -35 -37 -3 5 -1 10 4 10 6 0 11 11 11 25 0 14 -4
25 -10 25 -5 0 -10 -9 -10 -21 0 -11 -4 -17 -10 -14 -5 3 -10 -1 -10 -9 0 -8
5 -18 10 -21 6 -3 10 -15 10 -26 0 -10 4 -19 9 -19 5 0 11 -7 14 -14 4 -10 1
-13 -8 -10 -19 8 -43 73 -43 118 0 27 3 34 9 25 7 -11 9 -11 9 -1 0 7 -7 21
-16 29 -12 13 -15 13 -14 2 1 -8 2 -23 1 -34 -1 -18 -2 -19 -12 -2 -5 9 -7 22
-3 28 3 6 2 14 -3 18 -11 7 -50 228 -76 426 -3 21 -4 17 -6 -15 -3 -107 45
-411 83 -518 13 -39 22 -72 18 -72 -4 0 0 -6 9 -13 8 -7 18 -20 22 -29 3 -10
13 -18 22 -18 8 0 15 -4 15 -10 0 -14 18 -12 23 3 2 6 3 4 2 -5 -2 -9 4 -19
12 -22 9 -4 11 -2 7 5 -4 7 -2 10 5 8 7 -3 11 -8 9 -12 -4 -9 40 -39 50 -33 4
2 13 -4 20 -15 19 -30 -4 -24 -83 22 -39 22 -61 31 -50 21 28 -28 133 -82 245
-126 52 -21 100 -42 107 -47 6 -6 14 -6 17 -1 2 4 -17 22 -44 40 -50 33 -66
39 -55 22 4 -6 -1 -7 -11 -3 -10 4 -13 8 -8 10 6 2 -3 31 -20 66 -16 34 -29
74 -29 90 0 15 -3 23 -7 17 -5 -7 -9 -4 -13 9 -3 14 -1 19 6 14 7 -3 4 3 -7
15 -20 23 -24 74 -18 262 l3 105 18 -70 c18 -73 42 -129 110 -253 22 -39 42
-78 44 -85 4 -9 8 -8 16 3 5 8 6 17 2 20 -18 11 -132 221 -146 267 -8 26 -21
86 -31 132 -14 73 -15 95 -4 173 7 49 14 87 16 86 1 -2 16 -73 34 -158 51
-255 79 -357 115 -432 19 -39 32 -75 29 -80 -5 -7 34 -68 55 -88 21 -19 113
-132 130 -160 11 -19 21 -28 21 -21 0 9 13 2 35 -19 30 -29 35 -41 35 -79 0
-31 3 -42 10 -35 7 7 11 94 11 230 1 228 -7 291 -47 352 l-17 27 27 -24 c18
-17 26 -20 26 -10 0 8 -29 43 -64 77 -86 85 -203 269 -286 451 -133 292 -156
368 -166 566 -7 142 -22 246 -21 145 1 -55 -10 -147 -19 -161 -2 -4 2 -13 9
-21 8 -7 16 -26 19 -41 5 -27 4 -28 -26 -21 -17 3 -53 23 -81 44 -27 21 -64
45 -82 54 -36 18 -117 110 -132 150 -25 65 -2 215 40 257 12 12 33 19 60 19
34 0 47 -6 80 -40 22 -22 41 -40 43 -40 1 0 0 14 -2 31 -4 24 -2 30 8 24 9 -6
12 -4 8 6 -3 8 3 26 14 39 l20 25 -2 -25 c-3 -38 -1 -46 10 -30 5 8 10 40 10
70 0 30 5 74 10 98 13 52 32 220 33 287 3 120 -4 240 -14 220 -12 -28 -1 191
15 277 7 37 9 65 4 62 -4 -3 -8 -3 -8 -1 0 14 88 207 95 207 2 0 -5 -26 -16
-57 -28 -83 -48 -176 -57 -271 -11 -116 4 -88 23 43 15 104 67 310 81 324 3 3
4 -3 0 -14 -9 -30 -46 -198 -46 -210 1 -5 9 8 19 30 11 22 20 34 20 26 2 -25
117 153 132 203 11 40 27 61 84 113 38 35 75 61 82 59 6 -3 10 0 7 7 -2 7 21
25 53 42 68 36 89 44 48 17 -37 -23 -205 -199 -205 -214 0 -5 42 32 93 85 72
74 97 94 117 92 14 -1 34 4 45 11 30 21 40 17 19 -7 -19 -22 -19 -22 6 -14 23
7 24 7 10 -10 -14 -17 -13 -18 3 -12 10 4 16 3 13 -2 -9 -15 13 -66 34 -79 15
-9 20 -9 20 0 0 6 3 9 6 5 4 -3 -12 -32 -35 -64 -22 -32 -36 -60 -31 -61 11
-4 27 13 63 63 19 26 37 33 37 13 0 -6 -3 -8 -6 -5 -10 9 -42 -35 -49 -69 l-7
-29 21 30 c13 18 21 24 21 14 0 -8 -5 -20 -10 -25 -12 -12 -2 -47 11 -39 4 3
5 13 2 21 -5 14 -3 15 15 5 12 -7 22 -16 22 -22 0 -5 11 -7 25 -3 22 5 25 3
26 -22 l1 -29 7 30 c3 17 10 29 14 28 19 -7 27 -1 27 20 1 20 2 20 11 4 5 -9
8 -21 5 -26 -3 -5 1 -14 9 -21 11 -9 15 -10 15 -1 0 8 8 10 20 6 22 -7 26 5 8
23 -10 10 -8 16 7 32 20 19 20 19 22 -7 1 -18 -2 -22 -7 -12 -5 7 -12 10 -16
7 -3 -4 10 -22 30 -41 20 -19 39 -31 42 -26 10 18 24 9 24 -16 0 -14 -3 -25
-8 -25 -4 0 -12 -8 -17 -19 -25 -48 -113 -169 -119 -164 -3 4 -6 1 -6 -6 0 -7
-9 -26 -21 -42 -11 -16 -17 -34 -13 -40 4 -7 3 -9 -3 -6 -5 3 -10 -6 -10 -23
0 -26 2 -28 21 -18 22 12 46 39 88 101 26 36 28 38 29 16 1 -16 5 -8 13 21 9
33 14 40 19 28 7 -19 -9 -72 -42 -136 -12 -23 -19 -42 -15 -42 4 0 2 -6 -3
-12 -5 -7 -24 -52 -43 -100 -33 -84 -36 -88 -65 -88 -54 0 -60 13 -25 51 51
54 173 249 155 249 -2 0 -14 -19 -26 -42 -27 -54 -103 -163 -143 -205 -41 -45
-112 -47 -73 -3 6 8 3 7 -9 -3 -15 -12 -41 -17 -95 -18 -55 -1 -66 -3 -44 -9
28 -7 28 -8 5 -9 -14 -1 -36 -8 -50 -16 -29 -17 -13 -20 26 -5 32 12 91 16
101 7 3 -4 -2 -17 -13 -29 -11 -14 -5 -11 13 6 28 26 37 28 75 22 67 -10 108
-26 108 -42 0 -21 -95 -220 -109 -228 -7 -5 -6 -15 6 -34 10 -15 20 -29 24
-32 3 -3 9 -12 12 -20 4 -12 6 -12 6 2 1 9 -6 24 -15 33 -9 9 -14 19 -10 22 3
4 12 1 18 -5 23 -23 31 -12 9 12 l-22 23 46 93 c25 52 45 99 45 106 0 25 20
25 82 0 34 -14 64 -24 66 -22 2 2 -15 17 -38 32 -71 50 -81 61 -74 79 6 13 9
14 16 3 7 -9 8 -6 5 10 -3 13 2 40 11 60 8 20 15 40 14 45 -1 4 3 7 8 7 6 0
10 6 10 13 0 6 6 24 14 39 8 15 17 41 21 58 4 17 13 43 21 58 19 38 19 3 -1
-45 -8 -20 -13 -38 -11 -41 3 -2 11 8 17 24 6 16 26 61 44 99 17 39 40 96 50
128 10 31 22 57 26 57 5 0 9 10 9 23 0 31 15 53 25 37 5 -9 14 -5 29 13 12 14
41 31 64 38 24 7 51 22 60 34 10 12 23 20 30 17 6 -2 12 4 12 13 0 16 2 16 24
1 18 -11 26 -12 29 -3 3 8 12 3 27 -13 l22 -25 -6 50 c-5 35 -3 46 4 35 8 -12
12 -12 18 -2 7 10 21 1 58 -34 60 -57 150 -125 157 -118 2 3 7 -7 11 -21 4
-14 11 -25 16 -25 6 0 10 -5 10 -12 0 -6 11 -26 25 -44 14 -18 25 -37 25 -42
0 -6 7 -12 15 -16 8 -3 15 -13 15 -23 0 -16 2 -16 11 -3 9 12 10 12 5 -4 -4
-11 5 -56 20 -100 26 -80 44 -114 44 -85 0 7 9 1 20 -16 16 -25 20 -26 26 -12
3 10 4 27 1 40 -41 172 -61 222 -129 326 -27 41 -46 76 -44 78 6 6 141 -138
172 -183 28 -40 78 -206 108 -354 48 -240 50 -259 50 -395 -1 -121 -4 -151
-27 -225 -57 -189 -167 -412 -209 -425 -28 -9 -41 -32 -23 -39 9 -3 14 -2 11
2 -2 4 9 15 25 24 16 10 29 13 29 9 0 -5 -7 -11 -15 -15 -8 -3 -15 -10 -15
-15 0 -6 -21 -31 -47 -57 -27 -26 -47 -54 -45 -63 2 -13 1 -13 -6 -2 -8 11
-12 10 -21 -5 -8 -14 -10 -15 -10 -4 0 8 6 26 14 40 28 49 15 52 -18 4 -17
-27 -61 -70 -97 -96 -115 -84 -109 -79 -75 -67 16 6 45 22 64 36 l34 27 -41
-80 c-23 -43 -57 -113 -76 -154 -47 -102 -92 -143 -197 -182 -226 -82 -496
-168 -530 -168 -83 0 -144 35 -337 193 -39 31 -74 57 -77 57 -6 0 0 -41 12
-84 4 -13 7 -15 13 -6 9 15 85 -22 180 -90 87 -62 162 -100 197 -100 15 0 63
11 106 25 43 14 89 25 103 25 24 0 25 -3 22 -47 l-3 -48 -68 -7 c-55 -5 -82
-2 -130 13 -66 21 -281 59 -334 59 -27 0 -34 4 -39 28 -9 44 -12 49 -13 22 -1
-30 74 -251 88 -259 10 -7 42 -93 36 -99 -2 -2 -15 17 -30 43 -15 25 -29 44
-32 41 -3 -2 3 -16 12 -30 10 -14 14 -26 10 -26 -5 0 -1 -8 8 -18 23 -26 72
-148 93 -231 12 -53 15 -96 12 -173 -6 -112 -26 -184 -65 -236 -14 -18 -23
-36 -20 -38 4 -5 25 18 55 62 10 16 11 15 1 -6 -6 -14 -19 -33 -27 -43 -14
-16 -14 -19 -2 -28 12 -8 9 -9 -10 -7 -25 3 -60 -27 -60 -51 0 -6 -5 -11 -10
-11 -6 0 -23 -21 -39 -46 -16 -25 -41 -55 -55 -67 -14 -13 -26 -28 -26 -34 0
-7 -9 -18 -21 -26 -23 -17 -49 -101 -49 -163 0 -42 15 -99 33 -122 17 -22 19
-5 3 27 -9 16 -16 40 -15 53 1 18 3 16 9 -8 4 -18 24 -62 44 -99 21 -36 35
-69 31 -73 -3 -4 -9 -2 -13 3 -8 11 -30 26 -84 55 -37 20 -128 104 -128 118 0
4 -13 22 -29 41 -30 35 -44 84 -31 111 62 134 100 171 245 242 58 27 108 55
111 60 4 6 3 9 -2 6 -5 -2 -54 -25 -108 -51 l-100 -48 -25 26 -26 26 30 -6
c46 -10 11 10 -65 35 -174 58 -288 149 -399 320 -35 52 -72 105 -83 116 -11
12 -15 24 -10 28 5 3 15 -6 23 -20 7 -14 22 -30 34 -36 l20 -11 -21 24 c-28
33 -67 94 -103 159 -17 30 -31 49 -31 42 0 -7 4 -20 10 -30 5 -9 17 -34 26
-54 9 -21 20 -38 25 -38 5 0 9 -10 8 -22 0 -22 -1 -22 -9 -3 -5 11 -9 14 -9 7
-2 -25 63 -145 96 -179 135 -139 253 -290 253 -323 0 -24 -32 -27 -50 -5 -24
29 -21 7 9 -64 17 -39 26 -71 21 -71 -4 0 -10 4 -12 8 -4 11 -125 112 -161
135 -27 18 -28 19 -10 32 16 13 15 14 -17 15 -19 0 -46 7 -60 15 -41 24 -57
18 -30 -10 17 -18 20 -25 8 -25 -16 0 -58 41 -58 57 0 6 -19 23 -42 38 -65 43
-122 108 -161 183 -51 96 -67 168 -68 297 -1 110 -8 121 -28 39 -5 -21 -16
-65 -25 -97 -18 -66 -13 -97 30 -195 13 -30 24 -60 23 -66 0 -6 -4 -1 -10 12
-5 14 -13 20 -21 16 -7 -5 -9 -2 -6 8 4 9 0 15 -8 15 -17 0 -17 -2 1 -65 19
-63 63 -152 75 -152 5 0 12 -10 16 -22 15 -48 215 -228 253 -228 20 0 -65 151
-122 216 -10 12 -15 24 -10 27 14 9 105 -117 149 -204 23 -45 51 -88 65 -96
13 -8 16 -12 7 -9 -23 7 -23 4 6 -106 23 -93 43 -293 25 -253 -7 16 -8 13 -5
-12 3 -18 1 -35 -4 -38 -6 -3 -7 1 -4 9 9 24 -12 19 -28 -6 -13 -20 -13 -33
-1 -98 7 -41 12 -95 11 -120 -3 -45 -1 -48 64 -109 41 -38 101 -80 150 -106
82 -42 83 -43 108 -106 14 -36 34 -78 45 -95 45 -70 196 -265 210 -270 8 -4
12 -10 9 -15 -3 -5 0 -8 8 -7 7 2 12 -3 10 -10 -1 -8 2 -11 6 -8 5 3 18 -4 28
-17 10 -12 12 -16 4 -9 -8 6 -19 12 -24 12 -6 0 -3 -5 6 -11 10 -5 20 -8 22
-7 8 5 126 -115 126 -128 0 -6 60 -72 133 -145 175 -177 201 -209 254 -309
119 -221 138 -250 227 -342 69 -73 183 -235 205 -293 2 -5 23 -39 46 -75 23
-36 65 -102 93 -147 l50 -82 -28 -90 c-34 -105 -79 -201 -118 -246 -51 -61
-87 -110 -87 -120 0 -14 -27 -50 -45 -60 -8 -4 -4 5 10 22 14 16 7 9 -15 -16
-22 -25 -83 -88 -135 -138 -96 -94 -121 -132 -30 -47 58 55 66 51 14 -6 l-36
-40 413 0 414 0 -55 35 c-30 19 -88 51 -129 72 -106 55 -131 84 -164 195 -15
51 -30 126 -34 166 l-6 73 -25 -23 -25 -23 17 33 c9 18 21 30 25 27 5 -3 7 3
4 14 -3 10 2 31 9 46 14 26 14 25 16 -29 1 -31 6 -65 12 -76 6 -11 8 -25 5
-30 -7 -12 35 -123 74 -192 35 -61 61 -76 86 -48 14 16 14 21 0 63 -22 66 -70
165 -91 188 -15 17 -15 23 -4 44 11 20 10 28 -3 49 -12 18 -19 61 -24 158 -4
73 -9 125 -11 116 -5 -23 -22 -23 -22 0 0 14 -2 15 -10 2 -15 -23 -12 -1 10
98 20 91 58 208 59 182 0 -8 -11 -53 -24 -99 -25 -84 -31 -120 -19 -108 14 14
74 209 68 219 -4 6 -3 8 3 5 13 -8 47 108 37 125 -4 6 -3 8 3 5 10 -7 38 42
29 50 -3 3 2 12 10 20 8 9 13 22 10 30 -3 8 -2 12 3 9 5 -3 20 18 33 47 64
135 126 257 160 314 37 60 38 65 38 154 0 51 -5 141 -12 200 -10 91 -9 132 6
275 27 258 33 304 41 312 4 4 4 -19 0 -50 -5 -37 -4 -58 3 -58 13 0 20 19 43
110 10 41 52 176 94 300 41 124 78 251 82 283 5 49 10 61 32 74 30 18 91 83
91 96 0 5 -15 -9 -32 -30 -31 -38 -78 -70 -78 -54 0 5 12 21 26 36 14 15 37
46 52 69 14 22 27 43 28 45 2 1 21 -12 43 -30 23 -18 43 -30 46 -28 10 10 -73
64 -187 122 -67 34 -133 68 -147 76 -44 24 -171 113 -171 120 0 12 -138 151
-149 151 -16 0 -8 -42 11 -64 9 -10 14 -24 12 -31 -3 -7 2 -15 12 -19 15 -6
15 -4 3 10 -12 15 -12 17 0 13 8 -3 20 -30 28 -59 8 -30 18 -56 23 -58 6 -2
10 -9 10 -15 0 -7 33 -43 73 -82 87 -84 98 -93 181 -145 60 -38 85 -44 114
-27 19 13 14 -7 -9 -32 -14 -15 -27 -20 -42 -15 -46 13 -165 96 -237 163 l-75
71 -8 -68 c-21 -191 -56 -298 -114 -353 -25 -24 -32 -28 -24 -12 6 12 17 28
25 35 29 29 58 102 72 181 17 97 16 89 5 83 -4 -3 -11 22 -15 56 -8 84 -8 108
4 108 5 0 7 -8 3 -17 -4 -14 -3 -15 6 -7 12 11 5 44 -10 44 -5 0 -9 10 -10 23
-1 21 -1 21 -9 -3 -4 -14 -9 -20 -10 -15 -2 10 -39 -177 -43 -221 -3 -25 -24
-54 -39 -54 -6 0 -37 -12 -70 -27 -62 -28 -88 -59 -88 -108 0 -14 -5 -25 -11
-25 -7 0 -10 27 -7 83 4 98 30 160 104 254 27 35 59 80 72 100 l23 38 -23 -26
c-13 -15 -40 -50 -60 -79 -21 -29 -38 -49 -38 -44 0 11 102 158 113 163 4 2
13 14 18 28 8 21 12 23 24 13 19 -15 19 -13 0 40 -8 23 -15 58 -15 76 0 23 -8
41 -25 56 -19 18 -26 37 -31 87 -7 58 -8 61 -20 40 -12 -23 -12 -23 -19 11 -3
19 -7 51 -8 70 -1 19 -6 40 -10 47 -4 7 4 51 18 99 15 47 25 87 23 89 -2 3
-18 -38 -36 -90 -33 -97 -43 -206 -23 -244 7 -13 5 -17 -9 -17 -10 0 -16 4
-14 8 3 5 -4 21 -16 36 -84 108 -100 158 -107 328 -6 133 6 273 32 388 15 66
17 69 47 73 29 5 38 20 38 66 0 38 13 50 24 21 3 -8 14 -14 24 -12 24 4 52
-19 45 -38 -3 -8 -1 -14 5 -14 5 0 13 -23 16 -52 5 -38 10 -48 17 -38 9 14 4
-34 -7 -69 -2 -7 0 -19 5 -25 13 -16 -17 -214 -40 -259 -11 -21 -15 -36 -10
-33 5 4 11 1 13 -6 10 -30 68 274 68 357 0 24 3 46 8 48 4 3 6 -18 6 -46 -1
-36 0 -41 3 -17 4 30 7 32 13 15 8 -19 9 -19 9 1 1 12 8 25 16 28 9 3 22 21
30 39 8 19 21 39 29 47 9 7 16 19 16 27 0 10 6 13 16 9 11 -4 18 1 21 14 3 11
13 20 22 20 9 0 23 6 29 12 10 10 15 10 21 -1 7 -11 10 -11 15 0 3 8 4 -44 1
-116 -3 -71 -5 -149 -5 -173 l0 -43 -100 7 c-71 5 -108 3 -130 -6 -16 -7 -30
-14 -30 -16 0 -5 30 -139 42 -184 17 -69 110 -247 170 -327 66 -89 310 -372
372 -432 33 -33 48 -42 58 -34 7 6 23 12 34 15 18 5 21 2 17 -16 -4 -21 -4
-21 8 -1 7 11 21 27 31 35 11 8 43 34 72 57 29 24 66 45 82 49 25 5 29 2 31
-18 4 -47 11 -85 26 -143 21 -80 32 -165 21 -164 -5 0 -31 29 -59 65 -58 76
-112 132 -140 146 -11 6 7 -18 41 -53 33 -35 73 -80 88 -99 16 -19 56 -66 91
-105 34 -38 96 -110 137 -160 42 -49 89 -102 105 -117 16 -14 35 -46 43 -70 7
-23 25 -59 39 -78 57 -75 102 -151 96 -160 -4 -6 -1 -9 6 -8 7 2 19 -13 25
-32 7 -19 13 -31 13 -26 1 6 7 1 15 -9 8 -11 11 -26 8 -34 -4 -10 -1 -12 8 -6
9 5 11 4 6 -3 -7 -11 62 -126 100 -167 77 -82 141 -163 141 -177 0 -20 69
-129 135 -214 26 -34 52 -72 57 -86 14 -38 151 -215 219 -283 53 -53 97 -121
107 -165 3 -13 50 -130 75 -185 5 -11 24 -56 41 -100 18 -44 41 -93 51 -110
10 -16 18 -36 18 -43 0 -20 57 -139 92 -195 36 -56 35 -25 20 -482 -10 -296
-14 -329 -54 -470 l-12 -40 -7 40 -6 40 -2 -42 c-1 -30 3 -43 12 -43 13 0 37
60 37 93 0 9 4 18 9 21 8 5 0 -44 -14 -91 -7 -22 -5 -23 44 -23 l51 0 0 4255
0 4255 -3500 0 -3500 0 0 -3682z m3815 3596 c17 -8 21 -12 10 -9 -77 23 -202
12 -299 -25 -56 -21 -17 -21 60 0 104 30 205 26 257 -10 52 -36 101 -136 104
-212 1 -48 -2 -60 -17 -68 -26 -14 -27 -14 -34 21 -8 44 -71 101 -144 132 -35
15 -69 27 -75 27 -7 0 -40 14 -75 30 -34 17 -67 28 -73 25 -10 -7 -51 16 -77
41 -10 11 1 17 60 34 40 12 78 23 83 25 31 10 193 3 220 -11z m165 -204 c22
-44 40 -81 40 -84 0 -2 -11 -6 -24 -8 -20 -4 -23 -1 -24 24 -1 42 -12 89 -28
121 -8 15 -12 27 -9 27 2 0 23 -36 45 -80z m-250 22 c67 -23 121 -62 115 -81
-3 -10 2 -26 11 -37 15 -18 15 -18 5 3 -15 30 -14 38 3 24 24 -20 28 -80 6
-103 -11 -12 -17 -25 -14 -30 3 -4 0 -8 -6 -8 -6 0 -8 -4 -5 -10 6 -10 -5 -8
-57 12 -27 10 -38 28 -18 28 15 0 12 19 -5 37 -8 8 -13 19 -10 24 4 5 -1 6 -9
3 -14 -5 -14 -8 -1 -21 23 -22 18 -39 -5 -18 -11 10 -20 30 -20 45 0 33 -24
93 -53 134 -20 28 -20 29 -1 22 10 -5 39 -15 64 -24z m-1051 -117 c-19 -19
-35 -35 -37 -35 -9 0 21 41 40 54 34 24 33 19 -3 -19z m848 13 c-3 -8 -6 -5
-6 6 -1 11 2 17 5 13 3 -3 4 -12 1 -19z m-19 -24 c2 -1 -7 -1 -20 -1 -15 1
-24 8 -24 19 0 16 1 16 21 0 11 -9 21 -18 23 -18z m704 -4 c63 -18 125 -83
142 -150 6 -23 6 -23 -5 -5 -6 11 -22 29 -35 41 -12 11 -24 27 -26 34 -7 34
-49 58 -128 76 -48 10 -51 12 -20 13 19 0 52 -4 72 -9z m-79 -22 c94 -22 106
-30 159 -98 58 -74 78 -104 78 -117 0 -7 5 -13 11 -13 7 0 9 -13 5 -37 -5 -28
-4 -34 3 -23 7 9 11 10 11 3 0 -6 -5 -15 -11 -18 -6 -4 -8 -14 -4 -22 4 -13 3
-14 -10 -3 -8 7 -12 17 -8 24 3 6 0 6 -8 -1 -10 -10 -10 -16 -1 -25 7 -7 12
-16 12 -21 0 -4 -42 28 -92 73 -110 95 -171 123 -265 121 -58 -1 -81 9 -50 23
6 3 1 3 -13 -1 -22 -5 -23 -4 -11 11 8 9 21 14 30 11 8 -3 12 -3 8 1 -19 19
132 58 218 56 45 -1 48 1 31 13 -36 27 -207 -5 -308 -56 -44 -23 -53 -24 -36
-5 7 8 17 11 22 8 5 -3 6 3 2 13 -9 24 1 51 22 59 9 4 33 15 52 26 44 24 44
24 153 -2z m-609 -4 c9 -24 7 -28 -9 -14 -17 14 -20 30 -6 30 5 0 12 -7 15
-16z m42 -76 c2 -28 -1 -37 -7 -27 -5 8 -9 26 -9 41 0 22 -4 26 -17 21 -15 -6
-16 -5 -3 9 21 22 34 7 36 -44z m151 -30 c-3 -8 -6 -5 -6 6 -1 11 2 17 5 13 3
-3 4 -12 1 -19z m131 -11 c8 -9 4 -18 -14 -34 -19 -17 -24 -18 -24 -6 0 8 10
17 21 20 21 6 21 7 4 20 -11 7 -14 13 -8 13 6 0 15 -6 21 -13z m57 -37 c-3 -5
-12 -10 -18 -10 -7 0 -6 4 3 10 19 12 23 12 15 0z m-132 -17 c-7 -2 -19 -2
-25 0 -7 3 -2 5 12 5 14 0 19 -2 13 -5z m154 -24 c-9 -6 -15 -14 -12 -20 4 -5
1 -9 -4 -9 -6 0 -11 4 -11 8 0 12 22 32 35 32 5 0 2 -5 -8 -11z m-129 -48 c51
-32 132 -114 132 -133 0 -5 -14 0 -31 12 -16 12 -33 20 -35 17 -3 -3 6 -13 20
-23 15 -9 24 -19 21 -23 -15 -14 -43 -3 -80 31 -22 20 -42 35 -45 32 -2 -3 6
-14 20 -26 20 -16 21 -18 5 -12 -11 4 -28 7 -37 8 -9 0 -15 4 -12 8 9 14 -94
21 -236 15 -80 -3 -137 -2 -127 2 10 4 18 9 17 11 -1 3 4 17 11 32 27 60 108
89 235 85 83 -3 95 -5 142 -36z m552 -134 c-1 -13 -26 16 -41 48 -7 13 -1 10
15 -8 14 -15 26 -33 26 -40z m-1020 43 c0 -5 -5 -10 -11 -10 -5 0 -7 5 -4 10
3 6 8 10 11 10 2 0 4 -4 4 -10z m966 -26 c-3 -8 -1 -14 4 -14 11 0 40 -53 39
-72 0 -7 -4 -5 -8 5 -4 10 -9 17 -13 15 -3 -2 -15 8 -26 22 -14 17 -17 30 -11
41 4 9 5 20 1 24 -4 5 -1 5 6 1 7 -5 11 -14 8 -22z m-981 5 c16 -8 15 -8 -8
-4 -19 4 -26 2 -22 -5 4 -6 -5 -10 -22 -10 l-28 0 25 14 c30 17 30 17 55 5z
m268 -6 c-7 -2 -19 -2 -25 0 -7 3 -2 5 12 5 14 0 19 -2 13 -5z m65 0 c-10 -2
-26 -2 -35 0 -10 3 -2 5 17 5 19 0 27 -2 18 -5z m-448 -38 c-6 -8 -8 -20 -4
-26 4 -8 3 -9 -5 -5 -8 5 -10 -1 -6 -23 3 -17 2 -31 -3 -31 -4 0 -17 -7 -28
-16 -18 -15 -18 -15 3 -5 49 24 34 8 -29 -29 -37 -22 -91 -63 -121 -90 -52
-47 -83 -67 -57 -35 6 8 9 18 6 24 -3 5 -1 11 5 13 6 2 12 19 13 37 1 27 9 37
41 57 22 13 57 29 78 36 20 6 37 15 37 20 0 5 12 6 28 2 21 -4 24 -3 12 5 -12
8 -12 11 -1 11 10 0 11 3 2 13 -8 10 -6 19 7 35 9 12 21 22 26 22 5 0 3 -7 -4
-15z m770 -10 c14 -19 14 -19 -2 -6 -10 7 -18 18 -18 24 0 6 1 8 3 6 1 -2 9
-13 17 -24z m-673 9 c-3 -3 -12 -4 -19 -1 -8 3 -5 6 6 6 11 1 17 -2 13 -5z
m-52 -14 c-27 -12 -43 -12 -25 0 8 5 22 9 30 9 10 0 8 -3 -5 -9z m728 -40 c27
-31 46 -25 28 9 -10 17 -6 17 36 -6 106 -56 193 -121 286 -212 54 -53 106 -99
116 -103 32 -11 88 -109 75 -130 -3 -5 -33 17 -65 49 -32 32 -65 58 -72 58 -8
0 -34 17 -58 38 -63 54 -66 56 -73 50 -3 -4 -13 2 -21 13 -11 13 -14 14 -13 4
2 -8 7 -18 13 -22 5 -4 6 -10 3 -14 -11 -10 -35 19 -32 38 1 11 -3 15 -14 11
-12 -5 -14 -2 -9 12 7 16 5 16 -10 4 -15 -12 -16 -12 -10 3 4 11 2 17 -6 15
-7 -1 -11 4 -9 11 1 8 -2 11 -9 6 -7 -4 -17 0 -23 8 -6 8 -29 24 -52 36 -22
11 -54 36 -71 55 -40 45 -51 51 -70 36 -13 -11 -17 -10 -28 4 -7 9 -19 17 -28
17 -56 0 -63 36 -9 45 20 4 44 7 52 9 22 4 45 -10 73 -44z m-820 20 c-3 -10
-8 -19 -12 -18 -3 1 -28 -8 -55 -20 -69 -31 -70 -27 -1 18 70 45 75 47 68 20z
m302 -40 c-3 -5 -13 -10 -21 -10 -12 0 -12 -3 -2 -13 10 -12 15 -12 26 0 16
15 32 17 32 3 0 -5 -7 -10 -16 -10 -10 0 -14 -6 -10 -15 3 -8 0 -15 -7 -16 -7
0 -24 -2 -39 -4 -16 -2 -32 3 -39 12 -11 13 -10 14 9 11 11 -1 21 2 21 7 0 6
-11 9 -24 7 -14 -2 -25 1 -25 7 0 6 11 11 24 11 14 0 28 5 31 10 3 6 15 10 26
10 11 0 17 -4 14 -10z m-450 -40 c-3 -5 -12 -10 -18 -10 -7 0 -6 4 3 10 19 12
23 12 15 0z m215 -40 c-24 -15 -36 -11 -14 4 10 8 21 12 24 10 2 -3 -2 -9 -10
-14z m-379 -144 c-16 -32 -40 -68 -55 -81 -33 -28 -97 -121 -89 -129 4 -3 2
-6 -3 -6 -6 0 -15 5 -21 11 -9 9 -8 15 3 26 8 8 14 19 14 24 0 13 -24 -10 -38
-38 -14 -26 -16 -44 -2 -23 8 13 11 13 19 1 8 -13 -23 -117 -48 -162 -5 -8
-21 -59 -36 -112 -15 -53 -31 -97 -36 -97 -4 0 -9 -19 -11 -42 l-3 -43 -19 62
c-11 34 -23 60 -28 57 -9 -6 2 59 12 66 4 3 16 30 27 60 12 30 33 81 47 112
14 31 26 63 26 70 0 20 79 108 93 103 11 -4 58 56 56 71 0 3 8 13 18 22 10 9
36 38 57 65 21 26 40 46 42 45 1 -2 -10 -30 -25 -62z m475 50 c20 -21 17 -28
-6 -14 -11 7 -20 16 -20 20 0 12 10 9 26 -6z m979 -114 c-3 -9 0 -12 9 -9 14
5 40 -22 79 -84 12 -19 15 -29 7 -29 -7 0 -14 9 -17 20 -4 15 -9 18 -18 10
-11 -9 -13 -5 -11 15 4 32 -10 42 -17 13 -4 -12 -9 -19 -12 -16 -4 3 -2 15 3
25 7 12 7 24 1 34 -8 11 -9 10 -7 -5 2 -10 -3 -21 -9 -23 -8 -3 -13 5 -14 19
0 13 -3 17 -6 10 -4 -10 -8 -9 -19 5 -16 22 -18 33 -4 33 6 0 10 -7 10 -16 0
-8 5 -12 10 -9 19 12 -10 36 -34 29 -18 -6 -19 -5 -8 9 13 15 16 15 38 0 15
-9 23 -22 19 -31z m-678 -84 c-3 -8 -6 -5 -6 6 -1 11 2 17 5 13 3 -3 4 -12 1
-19z m188 2 c3 -5 1 -10 -4 -10 -6 0 -11 5 -11 10 0 6 2 10 4 10 3 0 8 -4 11
-10z m806 -110 c96 -120 194 -352 204 -480 4 -48 23 -109 55 -169 10 -20 38
-83 61 -141 71 -174 139 -280 211 -328 21 -13 38 -26 38 -28 0 -7 -71 25 -98
45 -94 67 -194 247 -206 370 -6 60 -11 80 -19 70 -2 -2 0 -40 4 -84 4 -44 7
-114 7 -155 0 -67 -1 -70 -8 -34 -5 23 -16 66 -24 95 -9 29 -16 72 -16 95 0
49 -27 175 -41 188 -5 6 -9 19 -9 30 -1 12 -19 55 -41 96 -22 41 -38 67 -34
57 15 -51 17 -72 7 -62 -6 6 -21 55 -32 110 -12 55 -30 122 -41 149 -10 27
-15 54 -12 59 3 6 10 0 15 -12 4 -12 12 -20 18 -16 6 4 7 -1 3 -12 -6 -16 -5
-16 10 -4 20 16 19 19 -54 105 -15 17 -44 63 -65 101 l-38 70 35 -35 c19 -19
51 -55 70 -80z m-246 70 c3 -5 1 -10 -4 -10 -6 0 -11 5 -11 10 0 6 2 10 4 10
3 0 8 -4 11 -10z m58 -33 c3 -8 -1 -14 -8 -14 -7 0 -11 6 -8 14 3 7 6 13 8 13
2 0 5 -6 8 -13z m198 -14 c13 -16 12 -17 -3 -4 -10 7 -18 15 -18 17 0 8 8 3
21 -13z m-954 -155 c-3 -8 -6 -5 -6 6 -1 11 2 17 5 13 3 -3 4 -12 1 -19z m-2
-28 c3 -5 1 -10 -4 -10 -6 0 -11 5 -11 10 0 6 2 10 4 10 3 0 8 -4 11 -10z
m-1041 -47 c-12 -80 -23 -201 -25 -273 -1 -41 -3 -66 -6 -55 -2 11 -11 35 -19
53 -16 35 -14 72 12 192 23 102 51 162 38 83z m-570 -90 c-18 -47 -84 -166
-84 -151 0 5 21 53 47 108 47 103 69 128 37 43z m381 -43 c-4 -23 -9 -39 -11
-37 -3 2 -2 23 2 46 4 23 9 40 11 37 3 -3 2 -23 -2 -46z m-264 -72 c-6 -35
-16 -85 -21 -113 -6 -27 -13 -87 -15 -132 -4 -66 -9 -87 -25 -103 l-20 -20 0
23 c0 13 5 28 12 35 8 8 9 15 2 22 -7 7 -11 7 -12 -2 -3 -28 -20 -92 -21 -80
0 7 -6 10 -12 6 -8 -4 -8 -1 -1 12 19 36 91 289 103 364 7 41 14 69 17 62 2
-6 -1 -40 -7 -74z m246 -10 c-3 -8 -6 -5 -6 6 -1 11 2 17 5 13 3 -3 4 -12 1
-19z m-414 -33 c-15 -30 -33 -47 -33 -29 0 8 40 64 46 64 2 0 -4 -16 -13 -35z
m404 -47 c-2 -13 -4 -5 -4 17 -1 22 1 32 4 23 2 -10 2 -28 0 -40z m-476 -48
c-19 -75 -60 -178 -61 -150 0 29 69 235 76 227 2 -2 -5 -36 -15 -77z m2804 50
c-3 -11 -2 -20 3 -20 8 0 32 -103 32 -136 0 -5 -11 10 -25 33 -27 45 -47 142
-27 129 7 -4 12 -2 12 3 0 6 3 11 6 11 3 0 2 -9 -1 -20z m-2132 -118 c3 -24 1
-40 -4 -36 -5 3 -9 24 -9 46 0 51 5 47 13 -10z m-206 -44 c-2 -13 -4 -3 -4 22
0 25 2 35 4 23 2 -13 2 -33 0 -45z m2373 -112 c-1 -80 -14 -73 -24 14 -4 30
-9 75 -12 100 l-5 45 20 -44 c15 -31 21 -63 21 -115z m-2219 58 c10 -12 1 -71
-11 -79 -8 -5 -20 81 -19 130 l1 30 10 -35 c5 -19 14 -40 19 -46z m-105 -59
c-9 -33 -17 -78 -19 -100 -2 -38 -3 -37 -11 18 -7 49 -6 60 9 70 11 9 19 34
23 77 5 49 8 56 10 30 2 -19 -3 -62 -12 -95z m-14 43 c-2 -27 -8 -48 -13 -48
-12 0 -11 16 2 63 13 49 17 45 11 -15z m-311 -55 c-12 -20 -14 -14 -5 12 4 9
9 14 11 11 3 -2 0 -13 -6 -23z m239 -3 c0 -5 -4 -10 -10 -10 -5 0 -10 5 -10
10 0 6 5 10 10 10 6 0 10 -4 10 -10z m-45 -206 c-14 -98 -23 -194 -20 -211 4
-21 2 -33 -5 -33 -6 0 -8 -4 -5 -10 3 -5 0 -10 -9 -10 -8 0 -17 -6 -20 -12
-10 -25 6 98 19 142 7 25 16 68 19 95 9 74 38 227 42 222 2 -2 -8 -84 -21
-183z m145 161 c1 17 4 24 7 17 3 -7 2 -25 -2 -39 -5 -21 -8 -24 -16 -12 -5 7
-8 25 -8 39 1 23 2 23 9 -5 l8 -30 2 30z m2337 -42 c-3 -10 -5 -2 -5 17 0 19
2 27 5 18 2 -10 2 -26 0 -35z m54 -83 c11 -65 14 -235 3 -251 -3 -6 -1 -14 5
-18 9 -6 9 -20 1 -57 -6 -27 -10 -58 -8 -69 4 -39 -14 -115 -28 -115 -11 0
-10 11 6 50 33 83 23 71 -25 -28 -24 -51 -53 -105 -65 -119 l-20 -26 -1 54
c-1 57 -16 132 -18 93 -1 -20 -31 -57 -31 -38 0 5 -7 -2 -16 -14 -8 -12 -19
-20 -24 -17 -10 6 -30 -12 -74 -69 -30 -38 -73 -66 -102 -66 -9 0 -39 -13 -66
-30 -26 -16 -50 -30 -53 -30 -2 0 5 16 16 35 12 19 23 35 26 35 2 0 2 -4 -2
-9 -3 -5 -1 -12 5 -16 5 -3 10 -1 10 4 0 6 7 11 15 11 8 0 15 5 15 11 0 6 6 9
14 6 14 -6 48 27 39 37 -4 3 0 6 8 6 8 0 21 11 30 23 60 84 91 131 93 141 1 6
12 27 24 46 12 19 22 45 22 58 0 13 4 21 9 18 18 -11 64 237 82 439 3 33 17
-153 18 -242 1 -48 6 -85 12 -89 8 -5 9 31 5 125 -4 78 -2 130 3 127 5 -4 7 2
4 12 -2 10 3 24 11 31 9 8 16 25 17 40 1 25 1 24 16 -9 8 -19 19 -59 24 -90z
m-2784 88 c-3 -8 -6 -5 -6 6 -1 11 2 17 5 13 3 -3 4 -12 1 -19z m-72 -34 c-8
-16 -15 -23 -15 -16 0 17 20 55 26 49 2 -2 -2 -17 -11 -33z m2909 -88 c-3 -45
-8 -83 -10 -85 -2 -2 -4 45 -3 105 0 80 3 103 10 85 5 -14 7 -60 3 -105z
m-2973 -43 c-6 -10 -25 -34 -42 -53 l-31 -35 27 40 c38 54 47 65 52 65 2 0 -1
-8 -6 -17z m2754 -119 c-8 -16 -31 -65 -51 -109 -46 -103 -67 -145 -77 -152
-5 -3 3 17 17 44 14 26 39 84 56 128 32 82 58 130 66 122 3 -2 -2 -17 -11 -33z
m-2990 -241 c-28 -44 -124 -161 -191 -233 -34 -36 -92 -110 -129 -165 -78
-114 -79 -101 -2 23 29 46 90 124 136 175 46 51 109 122 139 160 56 69 77 87
47 40z m514 -75 c-2 -18 -5 -37 -8 -43 -3 -5 -7 -14 -8 -20 -1 -5 -12 -50 -23
-100 -11 -49 -23 -94 -25 -100 -12 -25 17 135 47 258 11 46 20 48 17 5z m2595
-45 c-4 -21 -13 -44 -21 -51 -7 -8 -10 -19 -6 -25 3 -7 2 -9 -2 -4 -5 4 -26
-9 -47 -30 -43 -42 -51 -41 -12 3 14 16 39 55 57 86 18 32 33 58 35 58 2 0 0
-17 -4 -37z m94 2 c-6 -14 -13 -23 -15 -21 -5 5 15 46 22 46 3 0 -1 -11 -7
-25z m-201 -37 c-3 -7 -5 -2 -5 12 0 14 2 19 5 13 2 -7 2 -19 0 -25z m113 -62
c0 -3 -4 -8 -10 -11 -5 -3 -10 -1 -10 4 0 6 5 11 10 11 6 0 10 -2 10 -4z m256
-266 c19 -52 41 -133 49 -179 18 -99 18 -111 5 -111 -5 0 -10 11 -10 24 0 39
-40 157 -71 213 -29 51 -92 233 -84 242 3 2 9 -7 15 -20 10 -22 10 -22 5 6 -3
17 -8 39 -11 50 -9 40 69 -132 102 -225z m-280 118 c1 -57 3 -110 6 -118 40
-148 154 -400 238 -527 83 -126 44 -5 -46 144 -36 58 -63 108 -61 110 4 3 22
-21 52 -68 5 -9 22 -34 38 -56 45 -64 99 -209 105 -280 2 -35 8 -66 13 -68 4
-3 31 -10 60 -15 53 -10 71 -18 229 -102 104 -55 158 -88 145 -88 -6 0 -20 7
-31 15 -26 18 -40 7 -16 -12 15 -13 15 -13 -5 -3 -14 6 -20 16 -17 25 4 8 1
15 -5 15 -6 0 -11 -4 -11 -9 0 -5 -10 -12 -22 -16 l-23 -7 25 -8 25 -8 -27 -1
c-21 -1 -29 -7 -34 -25 -3 -14 -3 -30 1 -35 3 -6 2 -11 -3 -11 -6 0 -12 7 -16
15 -3 8 -13 15 -23 15 -13 0 -23 -15 -36 -52 -39 -117 -68 -167 -104 -179 -18
-6 -33 -15 -33 -20 0 -20 -20 -7 -21 14 -1 16 -2 18 -6 5 -6 -22 -23 -24 -23
-2 0 8 -4 13 -8 10 -4 -2 -14 9 -21 25 -7 16 -17 27 -22 23 -5 -3 -9 4 -9 16
0 12 -4 19 -9 15 -16 -9 -41 25 -41 56 0 17 -4 28 -9 25 -18 -11 3 49 23 65
20 17 22 16 34 -7 7 -13 19 -24 26 -24 19 0 74 -63 79 -91 2 -14 5 -7 6 19 1
36 -2 42 -20 42 -15 0 -19 4 -15 16 4 10 -8 30 -32 54 -20 22 -45 47 -54 57
-22 24 -46 44 -53 43 -20 -1 -53 14 -63 31 -11 17 -9 19 13 19 14 0 25 -4 25
-10 0 -5 10 -9 23 -9 16 1 18 2 5 6 -10 2 -18 9 -18 14 0 5 -7 9 -16 9 -8 0
-12 4 -9 10 3 5 -6 19 -20 32 -14 12 -25 28 -25 35 0 7 -5 13 -11 13 -5 0 -7
4 -4 10 3 5 -6 12 -20 16 -13 3 -22 10 -20 15 3 4 17 4 31 -1 14 -6 35 -10 47
-9 17 1 15 3 -8 9 -16 4 -37 11 -46 14 -10 4 -23 0 -33 -10 -9 -9 -18 -15 -19
-13 -1 2 -8 14 -15 27 -17 30 -8 29 134 -13 106 -33 151 -38 114 -15 -8 6 -10
10 -4 10 20 0 -5 97 -27 103 -26 7 -100 126 -174 280 -105 218 -143 363 -123
480 6 31 11 57 12 57 1 0 2 -46 2 -102z m-246 32 c0 -5 -5 -10 -11 -10 -5 0
-7 5 -4 10 3 6 8 10 11 10 2 0 4 -4 4 -10z m-1862 -160 c-1 -23 -4 -36 -8 -30
-6 10 -1 70 6 70 2 0 3 -18 2 -40z m-176 -63 c1 -20 6 -33 10 -31 4 3 9 -3 9
-13 1 -16 2 -16 6 1 4 15 7 16 14 5 7 -11 9 -11 9 -1 0 7 5 10 11 7 6 -4 13 3
16 14 5 21 6 21 23 4 9 -11 28 -50 41 -88 21 -65 24 -68 29 -40 7 31 3 -273
-5 -410 -2 -44 -5 -96 -5 -115 -2 -87 -163 499 -175 636 -3 38 -8 83 -10 99
l-4 30 14 -31 c8 -18 15 -48 17 -67z m232 -9 c36 -79 54 -153 58 -235 2 -74
18 -66 18 9 l0 62 30 -59 c16 -33 30 -63 30 -67 0 -5 -12 -8 -28 -8 -15 0 -41
-4 -59 -9 l-31 -9 -11 61 c-5 34 -15 100 -22 147 -6 47 -15 106 -19 133 -4 26
-5 47 -3 47 2 0 19 -33 37 -72z m1564 53 c-12 -20 -57 -45 -65 -37 -8 8 7 26
21 26 8 0 19 7 26 15 18 22 32 18 18 -4z m-104 -57 c3 -8 2 -12 -4 -9 -6 3
-10 10 -10 16 0 14 7 11 14 -7z m-17 -36 c-3 -8 -6 -5 -6 6 -1 11 2 17 5 13 3
-3 4 -12 1 -19z m-17 -7 c0 -5 -7 -12 -16 -15 -14 -5 -15 -4 -4 9 14 17 20 19
20 6z m37 -68 c-3 -10 -5 -4 -5 12 0 17 2 24 5 18 2 -7 2 -21 0 -30z m590 -89
c18 -17 33 -35 33 -42 0 -6 5 -14 12 -18 7 -5 8 -2 3 7 -5 9 -5 11 2 4 10 -10
75 -226 70 -231 -3 -3 -42 73 -51 100 -4 10 -10 16 -13 12 -4 -4 14 -48 40
-98 26 -50 46 -92 45 -93 -2 -2 -18 0 -35 2 -22 4 -33 11 -32 22 0 10 2 11 6
4 2 -7 12 -13 20 -13 10 0 5 11 -17 36 -18 21 -41 58 -52 83 -10 25 -25 58
-33 74 -23 46 -44 129 -43 172 0 22 3 33 6 25 3 -8 20 -29 39 -46z m-2721 -6
c-3 -18 -13 -86 -22 -151 -9 -65 -19 -116 -21 -113 -5 4 20 201 33 269 8 38
16 34 10 -5z m3051 -75 c-3 -10 -5 -4 -5 12 0 17 2 24 5 18 2 -7 2 -21 0 -30z
m-1036 -223 c6 -4 12 -102 15 -251 3 -134 7 -250 9 -256 7 -21 -10 -15 -35 12
-12 13 -28 22 -34 18 -6 -3 -8 -3 -4 1 3 4 -20 43 -52 87 -55 73 -58 81 -48
109 5 17 14 32 18 35 4 3 6 15 4 28 -2 12 -1 15 2 7 4 -8 18 -39 31 -69 33
-75 37 -60 7 24 -17 45 -23 81 -20 100 4 22 3 26 -4 15 -8 -12 -10 -11 -10 7
0 12 4 23 8 25 4 2 15 44 25 93 25 135 38 198 44 215 3 8 12 -32 20 -90 7 -57
18 -107 24 -110z m708 100 c1 -9 6 -21 13 -28 6 -6 9 -15 5 -18 -8 -9 -57 100
-56 124 1 19 37 -55 38 -78z m-1632 -19 c7 -25 9 -41 5 -36 -9 9 -42 102 -42
114 1 14 24 -36 37 -78z m931 -11 l-1 -55 -8 45 c-4 25 -8 59 -8 75 0 26 2 27
9 10 5 -11 8 -45 8 -75z m445 -97 c-7 -2 -21 -2 -30 0 -10 3 -4 5 12 5 17 0
24 -2 18 -5z m57 -13 c-8 -5 -19 -10 -25 -10 -5 0 -3 5 5 10 8 5 20 10 25 10
6 0 3 -5 -5 -10z m65 0 c19 -8 19 -9 -2 -9 -12 -1 -25 4 -28 9 -7 12 2 12 30
0z m118 -17 c-7 -2 -19 -2 -25 0 -7 3 -2 5 12 5 14 0 19 -2 13 -5z m137 -83
c-10 -6 -11 -10 -2 -10 6 0 12 -8 12 -17 -1 -16 -2 -16 -16 2 -12 16 -17 17
-23 7 -7 -11 -9 -10 -14 3 -4 9 -3 14 1 11 4 -2 14 -1 22 5 8 5 20 9 25 9 6 0
3 -5 -5 -10z m-2306 -90 c-3 -2 -9 2 -14 10 -6 9 -10 10 -10 3 0 -6 5 -15 10
-18 19 -12 10 -36 -30 -75 -22 -22 -40 -35 -40 -30 0 5 5 12 10 15 6 4 8 11 5
16 -4 5 3 9 13 9 29 0 37 62 17 131 -4 15 3 9 18 -16 14 -22 23 -42 21 -45z
m-1277 28 c-3 -8 -6 -5 -6 6 -1 11 2 17 5 13 3 -3 4 -12 1 -19z m1232 -73 c-8
-7 -9 -4 -4 12 5 18 3 22 -9 17 -9 -3 -16 -12 -16 -20 0 -8 -4 -14 -10 -14
-16 0 -12 14 10 38 11 12 20 31 21 44 1 13 5 3 10 -22 6 -30 5 -48 -2 -55z
m-1254 -36 c-8 -19 -13 -26 -11 -17 3 9 8 34 13 55 5 26 8 32 11 17 2 -12 -4
-37 -13 -55z m1321 33 c-1 -19 -6 -28 -17 -28 -17 0 -15 19 4 44 13 17 14 16
13 -16z m-143 -36 c4 -10 1 -13 -8 -9 -8 3 -12 9 -9 14 7 12 11 11 17 -5z
m183 -76 c4 -12 6 -13 14 0 7 11 14 3 28 -30 23 -55 36 -99 25 -85 -4 6 -15
11 -23 13 -8 2 -16 7 -18 12 -2 5 -11 6 -20 3 -9 -3 -14 -3 -10 2 8 9 -22 65
-35 65 -4 0 -5 -4 -2 -10 3 -5 2 -10 -4 -10 -5 0 -13 5 -16 10 -3 6 0 10 7 10
9 0 9 3 -2 10 -8 5 -10 10 -4 10 6 0 23 -9 38 -21 30 -24 31 -23 11 24 -8 20
-15 44 -14 54 0 16 5 5 25 -57z m2118 -90 c16 -14 46 -42 66 -62 20 -21 41
-38 45 -38 29 0 86 -37 92 -59 6 -23 7 -24 14 -6 6 15 8 12 8 -15 l1 -35 -30
34 c-17 18 -30 30 -30 25 0 -4 -9 2 -20 14 -28 30 -62 16 -71 -28 -4 -18 -12
-36 -18 -40 -22 -13 -22 -55 0 -78 11 -12 16 -22 11 -22 -12 0 -55 51 -48 58
3 3 -2 14 -11 25 -13 15 -15 21 -5 24 6 3 12 9 12 15 0 6 -6 6 -15 -2 -12 -10
-15 -10 -15 0 0 8 -3 10 -7 7 -4 -4 3 -22 16 -40 22 -32 22 -32 -9 3 -49 55
-140 167 -140 172 0 15 41 49 51 42 7 -4 9 -3 5 4 -3 6 3 20 15 31 24 22 20
24 83 -29z m817 -3 c-17 -17 -24 -1 -10 25 12 21 14 21 17 4 2 -10 -1 -23 -7
-29z m-1 -28 c0 -5 -18 -48 -40 -94 -22 -46 -40 -88 -40 -93 0 -5 -10 -17 -22
-28 -23 -19 -23 -19 -8 1 8 12 -1 4 -20 -16 -19 -21 -50 -45 -68 -54 -19 -9
-32 -19 -29 -22 3 -2 18 2 34 11 27 14 29 14 72 -27 47 -44 37 -23 -11 26 -15
15 -24 27 -19 27 16 0 82 -81 75 -92 -4 -5 -2 -13 3 -17 20 -12 93 -134 93
-155 0 -11 2 -39 5 -61 5 -38 4 -37 -10 10 -8 28 -17 58 -20 68 -6 27 -47 90
-67 105 -9 7 -23 19 -31 26 -8 8 -34 28 -57 44 -43 29 -44 29 -73 11 -19 -11
-41 -16 -57 -12 -29 5 -96 -24 -119 -51 -26 -31 -30 -15 -6 20 14 20 25 41 25
46 0 12 -26 38 -32 32 -9 -8 -4 70 5 81 4 6 13 17 20 27 7 9 28 19 47 22 31 6
33 5 16 -6 -51 -34 -69 -56 -71 -86 -3 -37 5 -40 30 -12 10 11 21 17 26 14 15
-9 107 45 186 111 43 36 81 65 85 65 4 0 19 20 34 45 25 43 44 58 44 34z m-50
-17 c0 -15 -49 -52 -55 -41 -4 5 4 18 17 29 25 21 38 25 38 12z m-1253 -44
c-3 -8 -6 -5 -6 6 -1 11 2 17 5 13 3 -3 4 -12 1 -19z m3 -91 c0 -6 -9 -2 -20
8 -11 10 -20 23 -20 28 0 6 9 2 20 -8 11 -10 20 -23 20 -28z m1125 33 c6 -9
-108 -90 -127 -90 -21 0 1 26 53 62 59 41 65 43 74 28z m-349 -76 c-3 -8 -2
-22 1 -31 6 -15 8 -14 14 7 4 14 5 -2 3 -34 -4 -56 -9 -75 -18 -65 -2 2 -7 42
-10 89 -5 65 -4 81 4 67 7 -10 9 -25 6 -33z m-3766 33 c0 -5 -87 -60 -120 -77
-27 -14 -59 -41 -93 -77 -11 -13 -27 -23 -34 -23 -7 0 -13 -6 -13 -13 0 -13
-7 -19 -79 -66 -62 -42 -80 -30 -36 23 48 60 100 101 167 135 31 16 54 32 51
35 -4 3 7 6 23 6 16 0 49 14 74 30 41 27 60 36 60 27z m3620 -32 c14 -19 14
-19 -2 -6 -10 7 -18 18 -18 24 0 6 1 8 3 6 1 -2 9 -13 17 -24z m252 -7 c-8 -8
-9 -4 -5 13 4 13 8 18 11 10 2 -7 -1 -18 -6 -23z m-3957 13 c-6 -5 -21 -12
-35 -15 l-25 -7 25 15 c28 17 50 21 35 7z m3654 -28 c6 -20 8 -39 6 -42 -3 -2
-5 1 -5 9 0 9 -3 10 -14 1 -11 -9 -15 -8 -21 6 -12 26 -12 36 0 50 16 20 24
15 34 -24z m-3588 14 c-6 -8 -7 -18 -3 -22 4 -5 1 -5 -6 -1 -10 6 -10 11 -1
22 6 8 14 14 16 14 3 0 0 -6 -6 -13z m3873 -33 c3 -8 2 -12 -4 -9 -6 3 -10 10
-10 16 0 14 7 11 14 -7z m-27 -26 c-3 -8 -6 -5 -6 6 -1 11 2 17 5 13 3 -3 4
-12 1 -19z m-3792 2 c-3 -5 -12 -10 -18 -10 -7 0 -6 4 3 10 19 12 23 12 15 0z
m-428 -16 c-3 -3 -12 -4 -19 -1 -8 3 -5 6 6 6 11 1 17 -2 13 -5z m384 -24 c16
-9 19 -22 19 -74 0 -43 -5 -67 -14 -76 -8 -6 -12 -18 -9 -26 3 -8 0 -14 -7
-14 -6 0 -9 -4 -6 -9 7 -11 -33 -63 -44 -56 -5 3 -11 1 -14 -4 -14 -22 25 -2
63 32 81 73 52 35 -64 -85 -66 -68 -121 -125 -123 -128 -3 -3 0 5 7 17 6 12
15 25 21 28 5 3 19 20 30 38 18 27 19 29 2 10 -11 -12 -23 -19 -27 -15 -5 4
-5 2 -2 -4 8 -14 -38 -58 -52 -50 -7 5 -8 1 -4 -11 5 -15 4 -16 -8 -7 -8 6
-24 10 -36 8 -13 -2 -23 -3 -24 -1 -6 17 -8 127 -2 124 4 -3 9 6 11 19 1 13 3
35 5 48 1 13 5 22 8 20 4 -2 19 21 35 52 29 57 91 134 109 134 6 0 21 9 35 20
28 22 61 25 91 10z m2049 -88 c74 -54 119 -118 141 -196 l9 -31 -28 35 c-31
41 -66 74 -104 102 -46 32 -32 10 27 -45 32 -29 53 -57 50 -65 -2 -7 0 -10 5
-7 6 4 9 3 8 -2 -1 -4 8 -27 20 -50 23 -43 28 -97 13 -121 -5 -9 -10 6 -13 42
-4 44 -13 68 -42 110 -51 75 -128 149 -211 203 -38 26 -72 48 -74 49 -1 2 0 8
4 14 5 7 18 4 42 -10 43 -25 56 -14 49 40 l-5 35 27 -31 c15 -17 52 -49 82
-72z m-1866 7 c-10 -12 -37 -35 -59 -51 -29 -22 -25 -16 15 21 57 53 77 66 44
30z m-416 -39 c-7 -10 -14 -17 -17 -15 -4 4 18 35 25 35 2 0 -1 -9 -8 -20z
m287 -30 c4 -6 -1 -7 -11 -3 -13 5 -15 3 -9 -7 5 -9 4 -11 -4 -6 -6 4 -9 12
-6 17 8 12 22 12 30 -1z m-455 -14 c0 -2 -8 -10 -17 -17 -16 -13 -17 -12 -4 4
13 16 21 21 21 13z m1870 -66 c-6 -11 -13 -20 -16 -20 -2 0 0 9 6 20 6 11 13
20 16 20 2 0 0 -9 -6 -20z m-178 -106 c31 -60 48 -79 48 -53 0 5 4 8 9 5 11
-7 25 49 17 63 -3 5 1 22 9 37 l15 29 2 -25 c0 -14 0 -33 -1 -44 0 -10 3 -24
8 -30 5 -6 7 -30 6 -53 -7 -90 27 -148 124 -210 65 -42 55 -55 -16 -20 -80 42
-123 107 -123 191 l0 41 -31 -52 c-16 -29 -51 -75 -76 -103 l-46 -51 -28 27
c-15 15 -28 30 -27 33 1 3 -2 14 -7 24 -5 13 2 38 24 79 27 52 31 72 31 137 1
87 5 86 62 -25z m737 22 c12 -48 7 -127 -10 -156 -7 -11 -8 -8 -5 10 14 78 15
112 1 156 -17 57 -18 61 -6 49 4 -6 14 -32 20 -59z m-602 2 c-3 -8 -6 -5 -6 6
-1 11 2 17 5 13 3 -3 4 -12 1 -19z m2239 -25 c-10 -10 -19 5 -10 18 6 11 8 11
12 0 2 -7 1 -15 -2 -18z m-3979 -65 c-2 -13 -4 -5 -4 17 -1 22 1 32 4 23 2
-10 2 -28 0 -40z m3210 10 c-8 -24 -12 -28 -15 -15 -2 10 2 24 8 32 19 22 20
18 7 -17z m370 -10 c-3 -8 -6 -5 -6 6 -1 11 2 17 5 13 3 -3 4 -12 1 -19z
m1064 -45 c-20 -41 -85 -103 -106 -103 -7 0 -18 6 -24 14 -9 11 -4 18 26 36
21 13 44 30 51 39 47 58 67 77 70 65 2 -7 -6 -30 -17 -51z m-4674 -5 c-3 -7
-5 -2 -5 12 0 14 2 19 5 13 2 -7 2 -19 0 -25z m3626 1 c7 0 3 -4 -8 -9 -11 -5
-14 -9 -7 -9 17 -1 15 -29 -3 -47 -13 -14 -15 -13 -15 9 0 38 14 95 18 75 2
-10 9 -18 15 -19z m-3532 -2 c-10 -9 -11 -8 -5 6 3 10 9 15 12 12 3 -3 0 -11
-7 -18z m3324 4 c-3 -5 -27 -17 -53 -25 -34 -12 -54 -26 -70 -52 -13 -20 -26
-33 -29 -30 -3 3 4 20 15 38 18 28 79 62 140 77 2 1 1 -3 -3 -8z m260 -1 c3
-6 -1 -7 -9 -4 -18 7 -21 14 -7 14 6 0 13 -4 16 -10z m-3601 -34 c-3 -8 -13
-17 -22 -21 -13 -5 -13 -2 3 15 21 24 26 25 19 6z m-54 -36 c0 -11 -2 -20 -4
-20 -2 0 -6 9 -9 20 -3 11 -1 20 4 20 5 0 9 -9 9 -20z m58 0 c-7 -10 -14 -17
-17 -15 -4 4 18 35 25 35 2 0 -1 -9 -8 -20z m1943 -133 c30 -58 47 -136 38
-176 -8 -34 -1 -60 8 -33 3 6 11 12 18 12 7 0 25 14 39 31 l26 31 0 -31 c0
-16 -6 -36 -13 -43 -8 -7 -12 -18 -10 -24 7 -21 -115 -42 -144 -25 -16 9 -15
10 8 11 76 1 75 121 -2 270 -32 61 -34 69 -13 45 14 -16 34 -47 45 -68z m1800
-28 c-17 -35 -36 -84 -42 -108 -14 -58 -23 -45 -14 24 4 35 15 65 29 83 13 15
29 38 35 50 7 13 15 22 17 19 3 -3 -9 -33 -25 -68z m-2322 -74 c1 -33 -15 3
-22 50 l-6 40 14 -35 c7 -19 14 -44 14 -55z m-1594 -10 c-25 -42 -45 -80 -45
-85 0 -6 -4 -10 -10 -10 -14 0 -13 6 6 43 17 33 83 127 89 127 2 0 -16 -34
-40 -75z m2235 2 c-7 -17 -9 -10 -9 28 1 43 2 46 9 22 5 -16 5 -38 0 -50z
m1071 44 c9 -9 19 -28 23 -43 6 -25 3 -28 -18 -28 -30 0 -86 45 -86 70 0 33
49 34 81 1z m-637 5 c-4 -10 5 -16 26 -21 l32 -7 -23 -24 c-12 -13 -31 -24
-42 -24 -20 0 -20 0 -1 21 17 19 18 21 1 30 -21 12 -23 39 -2 39 8 0 12 -6 9
-14z m80 -8 c8 -13 17 -33 21 -45 11 -37 -14 -27 -31 12 -8 20 -25 40 -37 45
-21 8 -21 9 5 9 18 1 32 -7 42 -21z m376 13 c0 -5 -6 -11 -12 -13 -8 -3 -4 -9
10 -17 21 -11 21 -13 6 -36 -20 -31 -38 -33 -31 -4 3 12 0 30 -6 40 -10 16 -9
21 3 29 19 12 30 13 30 1z m37 -3 c18 -23 32 -77 22 -83 -5 -4 -14 6 -19 22
-6 15 -15 36 -20 45 -6 10 -10 20 -10 23 0 10 18 5 27 -7z m763 -67 c-11 -38
-25 -73 -29 -76 -9 -5 21 124 34 145 17 27 15 -3 -5 -69z m-1022 21 c8 -24 12
-46 9 -49 -4 -3 -28 -2 -54 3 l-48 8 38 4 c46 4 53 32 7 32 -16 0 -30 4 -30
10 0 5 13 7 30 4 43 -9 37 10 -7 23 l-38 11 39 -1 c37 -2 40 -5 54 -45z m129
-2 c12 -25 17 -46 13 -48 -17 -6 -100 37 -100 52 0 33 13 47 39 44 20 -2 31
-14 48 -48z m-1415 -108 c20 -23 2 -22 -21 2 -17 18 -20 30 -15 52 l8 29 9
-35 c5 -19 14 -41 19 -48z m1055 8 c35 -21 68 -74 59 -96 -6 -16 -53 -19 -88
-5 -23 9 -63 94 -52 112 9 15 47 10 81 -11z m121 -55 c26 -53 27 -65 8 -65 -7
0 -22 21 -32 47 -11 27 -20 51 -22 55 -2 5 3 8 10 8 8 0 24 -20 36 -45z m106
29 c27 -10 18 -25 -11 -19 -16 2 -10 -1 11 -8 44 -15 62 -36 53 -61 -7 -18
-48 -21 -78 -6 -23 13 -26 35 -3 26 45 -17 64 -18 58 -3 -3 9 -20 19 -37 23
-38 8 -57 21 -57 40 0 14 36 19 64 8z m332 -25 c26 -24 32 -67 12 -74 -47 -17
-63 -10 -89 40 -14 28 -24 54 -21 59 8 14 74 -2 98 -25z m114 21 c0 -5 -10
-10 -22 -10 -31 0 -14 -13 35 -27 l42 -11 -34 -1 c-28 -1 -31 -3 -21 -15 6 -8
21 -17 33 -19 16 -3 14 -5 -9 -6 -23 -1 -36 6 -55 31 -55 74 -54 68 -10 68 23
0 41 -4 41 -10z m92 1 c-12 -7 -12 -12 -1 -30 8 -11 17 -21 21 -21 15 0 19 22
6 37 -11 14 -11 16 2 11 8 -2 20 -15 26 -27 6 -12 20 -29 30 -37 19 -15 18
-15 -1 -11 -11 3 -29 8 -40 13 -18 7 -18 6 -6 -9 11 -14 11 -17 0 -17 -13 1
-79 79 -79 93 0 4 12 7 28 7 19 0 23 -3 14 -9z m-347 -32 c29 -35 29 -56 2
-73 -35 -22 -109 47 -94 87 11 29 62 21 92 -14z m-1375 -30 c31 -28 44 -45 30
-38 -33 16 -100 70 -100 81 0 16 16 6 70 -43z m2121 -20 c-9 -22 -10 -22 -10
-3 -1 11 2 24 6 27 12 12 14 0 4 -24z m-1911 -244 c0 -5 -5 -3 -10 5 -5 8 -10
20 -10 25 0 6 5 3 10 -5 5 -8 10 -19 10 -25z m-2250 -60 c-16 -47 -23 -40 -9
9 6 21 13 36 16 33 3 -3 0 -22 -7 -42z m-12 -70 c-6 -14 -13 -24 -14 -22 -6 6
9 47 17 47 5 0 3 -11 -3 -25z m4069 -152 c-3 -10 -5 -4 -5 12 0 17 2 24 5 18
2 -7 2 -21 0 -30z m-1606 0 c13 -16 12 -17 -3 -4 -17 13 -22 21 -14 21 2 0 10
-8 17 -17z m1617 -398 l-1 -70 -7 70 c-4 39 -7 93 -7 120 l0 50 7 -50 c5 -27
8 -81 8 -120z m-4471 -327 c-3 -8 -6 -5 -6 6 -1 11 2 17 5 13 3 -3 4 -12 1
-19z m4339 -23 c-33 -50 -85 -153 -121 -238 -38 -89 -57 -113 -31 -39 22 60
114 246 137 276 26 33 36 34 15 1z m-195 -426 c-5 -13 -10 -19 -10 -12 -1 15
10 45 15 40 3 -2 0 -15 -5 -28z m2676 -616 c-2 -21 -4 -4 -4 37 0 41 2 58 4
38 2 -21 2 -55 0 -75z m-7 -313 c-10 -23 -10 -22 -5 9 3 18 6 54 7 80 2 45 2
44 5 -9 2 -31 -1 -67 -7 -80z m-2736 -13 c4 -17 3 -26 -2 -23 -11 7 -32 86
-31 113 1 17 18 -30 33 -90z"/>
<path d="M3801 8031 c-9 -6 -6 -8 13 -8 14 0 23 3 20 8 -7 11 -15 11 -33 0z"/>
<path d="M3910 8031 c0 -10 19 -25 25 -20 1 2 -3 10 -11 17 -8 7 -14 8 -14 3z"/>
<path d="M3997 7949 c7 -7 15 -10 18 -7 3 3 -2 9 -12 12 -14 6 -15 5 -6 -5z"/>
<path d="M3530 7785 c-14 -8 -20 -14 -15 -14 6 0 21 6 35 14 14 8 21 14 15 14
-5 0 -21 -6 -35 -14z"/>
<path d="M4060 7565 c7 -8 17 -15 22 -15 5 0 3 7 -6 15 -8 8 -18 15 -22 15 -3
0 -1 -7 6 -15z"/>
<path d="M2581 6654 c0 -11 3 -14 6 -6 3 7 2 16 -1 19 -3 4 -6 -2 -5 -13z"/>
<path d="M4741 5794 c0 -11 3 -14 6 -6 3 7 2 16 -1 19 -3 4 -6 -2 -5 -13z"/>
<path d="M4731 5754 c0 -11 3 -14 6 -6 3 7 2 16 -1 19 -3 4 -6 -2 -5 -13z"/>
<path d="M4995 4530 c-16 -7 -17 -9 -3 -9 9 -1 20 4 23 9 7 11 7 11 -20 0z"/>
<path d="M5091 4474 c0 -11 3 -14 6 -6 3 7 2 16 -1 19 -3 4 -6 -2 -5 -13z"/>
<path d="M5210 4466 c0 -2 9 -6 20 -9 11 -3 18 -1 14 4 -5 9 -34 13 -34 5z"/>
<path d="M5265 4440 c3 -5 8 -10 11 -10 2 0 4 5 4 10 0 6 -5 10 -11 10 -5 0
-7 -4 -4 -10z"/>
<path d="M5101 4404 c-12 -20 -19 -39 -16 -42 6 -7 6 -6 28 41 21 47 15 48
-12 1z"/>
<path d="M5066 4413 c-6 -14 -5 -15 5 -6 7 7 10 15 7 18 -3 3 -9 -2 -12 -12z"/>
<path d="M5111 4364 c0 -11 3 -14 6 -6 3 7 2 16 -1 19 -3 4 -6 -2 -5 -13z"/>
<path d="M5415 4360 c-3 -5 -2 -10 4 -10 5 0 13 5 16 10 3 6 2 10 -4 10 -5 0
-13 -4 -16 -10z"/>
<path d="M5446 4345 c-3 -8 -1 -15 4 -15 13 0 22 18 11 24 -5 3 -11 -1 -15 -9z"/>
<path d="M5292 4195 c0 -16 2 -22 5 -12 2 9 2 23 0 30 -3 6 -5 -1 -5 -18z"/>
<path d="M5321 4194 c0 -11 3 -14 6 -6 3 7 2 16 -1 19 -3 4 -6 -2 -5 -13z"/>
<path d="M5303 4155 c-3 -9 -3 -18 -1 -21 3 -3 8 4 11 16 6 23 -1 27 -10 5z"/>
<path d="M5285 4099 c-4 -6 -5 -12 -2 -15 2 -3 7 2 10 11 7 17 1 20 -8 4z"/>
<path d="M2680 4241 c0 -5 -3 -17 -7 -27 -4 -11 -3 -15 4 -11 14 9 24 47 12
47 -5 0 -9 -4 -9 -9z"/>
<path d="M4661 4113 c-1 -17 16 -25 25 -12 4 7 3 9 -4 5 -5 -3 -13 0 -15 6 -4
9 -6 10 -6 1z"/>
<path d="M4702 4115 c4 -4 3 -14 -4 -22 -6 -7 -9 -15 -7 -18 3 -2 10 4 17 15
9 15 9 21 -1 26 -6 4 -9 4 -5 -1z"/>
<path d="M4720 4031 c0 -10 19 -25 25 -20 1 2 -3 10 -11 17 -8 7 -14 8 -14 3z"/>
<path d="M4853 3930 c-1 -11 2 -18 8 -15 11 7 12 35 1 35 -4 0 -8 -9 -9 -20z"/>
<path d="M1199 3543 c-13 -16 -12 -17 4 -4 16 13 21 21 13 21 -2 0 -10 -8 -17
-17z"/>
<path d="M2670 3539 c0 -5 5 -7 10 -4 6 3 10 8 10 11 0 2 -4 4 -10 4 -5 0 -10
-5 -10 -11z"/>
<path d="M4110 3131 c0 -17 48 -67 56 -58 14 14 -10 62 -34 65 -12 2 -22 -1
-22 -7z"/>
<path d="M3830 3100 c0 -10 9 -24 19 -30 34 -17 41 -13 30 20 -13 35 -49 43
-49 10z"/>
<path d="M3499 2948 c14 -33 24 -44 44 -46 35 -4 34 9 -4 53 -45 50 -63 47
-40 -7z"/>
<path d="M4047 2915 c17 -36 37 -45 46 -22 7 18 -2 31 -30 46 -32 17 -34 14
-16 -24z"/>
<path d="M3880 2936 c0 -22 40 -66 61 -66 27 0 24 25 -8 55 -31 28 -53 33 -53
11z"/>
<path d="M2397 7663 c-20 -33 -37 -65 -37 -71 0 -6 -9 -26 -19 -44 -46 -79
-103 -285 -100 -361 1 -23 -1 -51 -5 -62 l-8 -20 17 20 c9 11 20 20 25 20 4 0
12 4 17 9 5 5 3 6 -4 2 -17 -10 -16 -3 6 63 37 108 51 163 44 174 -3 6 -1 7 5
3 9 -5 12 8 12 45 0 29 3 49 6 46 6 -6 50 111 59 155 2 9 9 26 15 38 6 12 10
26 8 32 -3 7 -21 -16 -41 -49z m-134 -468 c-3 -9 -8 -14 -10 -11 -3 3 -2 9 2
15 9 16 15 13 8 -4z"/>
<path d="M2625 7599 c-4 -6 -5 -12 -2 -15 2 -3 7 2 10 11 7 17 1 20 -8 4z"/>
<path d="M2579 7543 c-31 -34 -62 -83 -56 -89 2 -2 23 23 45 56 23 33 40 60
39 60 -2 0 -15 -12 -28 -27z"/>
<path d="M2496 7423 c-6 -14 -5 -15 5 -6 7 7 10 15 7 18 -3 3 -9 -2 -12 -12z"/>
<path d="M3290 7368 c0 -17 2 -18 15 -8 8 7 15 14 15 15 0 2 -7 5 -15 9 -10 4
-15 -1 -15 -16z"/>
<path d="M3096 7328 l-18 -33 21 25 c18 22 26 40 18 40 -1 0 -11 -15 -21 -32z"/>
<path d="M4146 7228 c24 -190 13 -463 -24 -610 -12 -47 -7 -49 12 -5 13 30 14
26 11 -58 -3 -57 -1 -83 5 -70 6 14 9 2 9 -42 1 -43 5 -63 14 -63 8 0 7 -4 -3
-10 -23 -15 -40 -12 -40 6 0 12 -4 14 -12 7 -18 -15 -48 -12 -48 4 0 9 -6 8
-20 -5 -11 -9 -16 -18 -10 -20 5 -2 7 -9 4 -14 -5 -7 -2 -8 7 -3 18 12 49 14
49 3 0 -4 11 -8 24 -8 13 0 29 -7 36 -15 7 -9 18 -14 24 -12 7 3 29 -5 51 -17
47 -26 54 -55 35 -150 -18 -90 -27 -106 -59 -96 -34 11 -201 17 -201 8 0 -5
-6 -8 -14 -8 -8 0 -18 -5 -22 -11 -4 -8 1 -9 16 -4 16 5 20 4 15 -5 -4 -6 -17
-9 -29 -7 -11 3 -37 -1 -56 -8 -20 -8 -27 -14 -17 -14 11 -1 15 -5 11 -13 -5
-8 -2 -9 12 -4 10 4 43 13 72 19 48 10 55 10 67 -6 7 -9 19 -17 28 -17 9 0 18
-4 22 -9 3 -6 22 -9 43 -7 29 2 45 -4 79 -31 23 -18 46 -33 51 -33 5 0 19 -20
32 -45 13 -25 29 -44 35 -41 17 6 17 -65 0 -84 -13 -14 -12 -16 6 -16 14 0 22
9 26 28 3 15 9 28 13 28 4 0 8 20 8 45 1 25 -2 45 -6 45 -5 0 -14 11 -20 24
-9 21 -8 23 11 20 22 -4 22 -4 0 7 -13 7 -23 17 -23 24 0 6 -17 21 -38 33 -21
11 -46 30 -56 41 -17 18 -17 21 2 58 29 56 60 152 68 206 9 69 24 58 24 -19 0
-45 -3 -63 -11 -58 -6 3 -4 -5 5 -18 12 -18 17 -53 18 -136 1 -62 6 -112 10
-112 4 0 6 47 5 105 -1 58 2 105 6 105 4 0 3 8 -2 18 -6 12 -4 36 5 72 30 112
28 404 -3 565 -6 29 -6 29 -20 -17 -8 -28 -20 -48 -28 -48 -7 0 -17 -6 -21
-12 -5 -7 -7 -98 -7 -203 2 -219 -3 -261 -23 -244 -8 6 -14 26 -14 43 0 18
-14 120 -31 227 -17 106 -35 261 -40 343 -5 87 -13 152 -20 156 -13 9 -28 73
-29 124 0 53 -20 166 -29 166 -4 0 -2 -46 5 -102z m125 -841 c7 -48 10 -90 7
-93 -3 -3 -23 7 -44 21 l-38 26 -2 144 c-1 89 2 142 8 139 5 -4 9 2 8 12 -1
11 -1 30 0 44 2 30 44 -171 61 -293z m-94 26 c-3 -10 -5 -2 -5 17 0 19 2 27 5
18 2 -10 2 -26 0 -35z m128 -205 c-4 -24 -12 -50 -17 -58 -8 -12 -8 -11 -4 3
3 10 6 36 6 58 0 21 5 39 11 39 7 0 8 -14 4 -42z m52 -324 c-3 -3 -12 -4 -19
-1 -8 3 -5 6 6 6 11 1 17 -2 13 -5z m31 -70 c-3 -14 -5 -12 -10 9 -3 19 -2 25
4 19 6 -6 8 -18 6 -28z"/>
<path d="M2339 7258 c-25 -34 -49 -76 -49 -86 0 -3 18 19 40 48 35 47 47 70
37 70 -2 0 -14 -15 -28 -32z"/>
<path d="M3045 7233 c-15 -32 -32 -71 -37 -88 -16 -51 -36 -165 -28 -160 3 2
12 35 19 73 7 38 28 104 46 147 40 92 40 112 0 28z"/>
<path d="M2925 7267 c-63 -75 -120 -165 -112 -174 3 -2 17 18 33 44 15 26 36
57 47 68 30 32 59 75 50 75 -4 -1 -13 -6 -18 -13z"/>
<path d="M3268 7243 c-19 -22 -138 -228 -138 -240 0 -4 30 42 66 102 36 61 73
118 82 128 8 9 13 19 10 22 -3 3 -12 -3 -20 -12z"/>
<path d="M2600 7209 c-7 -11 -10 -23 -7 -25 2 -2 9 7 15 21 14 30 7 33 -8 4z"/>
<path d="M3494 7132 c-14 -10 -26 -42 -14 -42 5 0 12 5 15 10 10 15 23 12 29
-7 2 -10 4 -5 3 11 -2 31 -14 41 -33 28z"/>
<path d="M2340 7121 c0 -7 -4 -10 -9 -7 -4 3 -6 -5 -4 -18 3 -13 0 -26 -5 -30
-6 -4 -8 3 -6 16 2 13 1 16 -2 8 -4 -8 -12 -28 -20 -45 -29 -68 -105 -373
-103 -413 1 -9 6 3 11 28 16 73 65 240 94 315 51 136 55 148 49 153 -3 3 -5 0
-5 -7z"/>
<path d="M2733 6923 c-38 -85 -45 -106 -34 -98 5 3 12 19 16 35 4 17 11 27 16
24 6 -3 9 0 8 7 -2 8 5 32 14 53 10 22 16 41 14 43 -2 2 -18 -27 -34 -64z"/>
<path d="M3106 6953 c-6 -14 -5 -15 5 -6 7 7 10 15 7 18 -3 3 -9 -2 -12 -12z"/>
<path d="M3086 6915 c-9 -26 -7 -32 5 -12 6 10 9 21 6 23 -2 3 -7 -2 -11 -11z"/>
<path d="M3068 6865 c-3 -11 -9 -29 -13 -40 -3 -11 1 -7 10 8 9 16 15 33 12
40 -2 6 -6 3 -9 -8z"/>
<path d="M2721 6834 c0 -11 3 -14 6 -6 3 7 2 16 -1 19 -3 4 -6 -2 -5 -13z"/>
<path d="M2690 6720 c-11 -51 -19 -95 -16 -97 3 -3 7 5 10 18 30 134 36 163
32 166 -2 2 -14 -37 -26 -87z"/>
<path d="M3034 6773 c-3 -16 -9 -38 -14 -50 -10 -24 -47 -250 -53 -323 -4 -43
-6 -45 -33 -42 -19 2 -26 0 -19 -7 6 -5 24 -11 40 -13 30 -4 30 -4 -10 -16
-22 -6 -57 -12 -77 -12 -20 0 -39 -4 -43 -10 -3 -5 -13 -6 -23 -3 -10 4 -6 -4
11 -20 32 -31 32 -34 10 -60 -17 -19 -17 -20 -1 -14 13 4 16 2 11 -11 -3 -9
-3 -14 2 -10 4 4 14 3 22 -3 10 -9 13 -8 13 5 0 21 58 75 85 81 11 2 36 6 55
9 19 2 44 7 55 11 11 3 4 -3 -17 -14 -55 -31 -102 -101 -68 -101 6 0 10 6 10
13 0 21 68 75 108 87 84 23 154 1 260 -80 34 -27 52 -36 52 -26 0 8 -5 18 -11
22 -6 3 -9 15 -6 25 3 10 1 17 -4 16 -5 -1 -15 9 -22 22 -16 32 -112 97 -164
112 -23 6 -74 10 -112 7 l-70 -4 -3 31 c-3 31 16 218 27 270 5 24 4 27 -5 15
-9 -12 -10 -9 -6 15 16 92 18 105 12 105 -3 0 -8 -12 -12 -27z m5 -457 c-2 -2
-20 -6 -39 -10 -25 -4 -31 -3 -20 4 14 9 69 15 59 6z m-189 -37 c0 -5 5 -7 10
-4 6 3 10 1 10 -4 0 -12 -11 -14 -34 -5 -20 8 -21 24 -1 24 8 0 15 -5 15 -11z"/>
<path d="M2714 6583 c-12 -130 -9 -395 6 -498 15 -107 28 -146 69 -211 36 -58
41 -43 7 24 -34 69 -54 136 -66 232 -13 94 -15 352 -5 466 4 41 5 74 2 74 -3
0 -9 -39 -13 -87z"/>
<path d="M3135 6630 c-3 -5 -2 -10 4 -10 5 0 13 5 16 10 3 6 2 10 -4 10 -5 0
-13 -4 -16 -10z"/>
<path d="M3199 6513 c-13 -16 -12 -17 4 -4 9 7 17 15 17 17 0 8 -8 3 -21 -13z"/>
<path d="M3997 6517 c-3 -8 3 -14 16 -15 12 0 17 2 12 6 -6 4 -13 11 -16 15
-4 4 -9 2 -12 -6z"/>
<path d="M3947 6424 c-21 -35 -35 -70 -31 -76 4 -7 3 -8 -4 -4 -7 4 -12 2 -12
-4 0 -6 7 -13 15 -16 8 -4 12 -11 9 -16 -4 -7 -10 -4 -16 6 -11 20 -32 21 -24
0 3 -8 2 -13 -3 -10 -5 3 -21 -11 -36 -32 -55 -73 -89 -103 -133 -114 -23 -6
-41 -12 -39 -15 3 -2 26 1 53 8 105 26 183 83 223 164 11 22 20 32 21 23 0
-22 -38 -125 -59 -158 -14 -23 -14 -24 1 -12 19 15 61 131 76 212 6 30 14 66
18 80 6 24 6 24 -9 5 -16 -20 -16 -20 -10 3 8 34 1 26 -40 -44z m23 -14 c-6
-11 -12 -20 -14 -20 -2 0 -2 9 1 20 3 11 9 20 15 20 5 0 4 -9 -2 -20z"/>
<path d="M4132 6435 c0 -16 2 -22 5 -12 2 9 2 23 0 30 -3 6 -5 -1 -5 -18z"/>
<path d="M3555 6256 c-3 -9 -7 -23 -10 -31 -2 -8 -1 -15 4 -15 10 0 25 50 17
58 -3 2 -8 -3 -11 -12z"/>
<path d="M3490 6235 c-23 -9 -28 -14 -15 -14 11 0 31 6 45 14 31 18 16 18 -30
0z"/>
<path d="M3133 6213 c-23 -5 -41 -35 -24 -41 17 -6 13 -32 -4 -32 -18 0 -19
-12 -3 -28 15 -15 45 -16 53 -2 4 6 6 25 6 43 -1 17 -2 40 -2 50 0 9 -1 16 -2
16 -1 -1 -12 -4 -24 -6z"/>
<path d="M3250 6189 c-7 -94 -6 -139 2 -131 5 5 12 32 17 60 6 39 5 55 -5 63
-8 6 -14 10 -14 8z"/>
<path d="M3193 6155 c0 -8 4 -12 9 -9 4 3 8 9 8 15 0 5 -4 9 -8 9 -5 0 -9 -7
-9 -15z"/>
<path d="M3880 6135 c-20 -24 -6 -28 15 -5 10 11 13 20 8 20 -6 0 -16 -7 -23
-15z"/>
<path d="M2970 6107 c0 -14 5 -29 10 -32 7 -4 8 3 4 22 -9 38 -14 42 -14 10z"/>
<path d="M3445 6100 c-17 -7 -14 -9 13 -9 20 -1 31 3 27 9 -7 12 -13 12 -40 0z"/>
<path d="M4048 6095 c-37 -5 -69 -13 -73 -16 -3 -4 18 -2 46 3 29 5 83 8 121
6 66 -3 88 4 49 17 -21 6 -51 5 -143 -10z"/>
<path d="M2914 6071 c21 -23 26 -26 26 -11 0 5 -10 15 -22 21 -23 12 -23 12
-4 -10z"/>
<path d="M2991 6055 c0 -18 37 -55 54 -55 14 0 15 3 5 15 -7 8 -18 15 -26 15
-7 0 -18 8 -23 18 -6 9 -10 13 -10 7z"/>
<path d="M2911 5985 c0 -33 3 -66 7 -73 5 -7 7 16 4 50 -5 85 -10 96 -11 23z"/>
<path d="M2577 5970 c-3 -14 -2 -29 3 -34 15 -15 20 -3 11 29 l-7 30 -7 -25z"/>
<path d="M3095 5980 c3 -5 18 -10 32 -10 32 0 28 5 -10 14 -19 4 -26 3 -22 -4z"/>
<path d="M4013 5975 c-30 -13 -53 -41 -53 -64 0 -20 16 -11 34 20 11 19 23 28
32 25 8 -3 12 -2 9 3 -3 6 3 14 12 20 26 15 3 13 -34 -4z"/>
<path d="M4090 5930 c0 -5 -6 -10 -14 -10 -7 0 -19 -7 -27 -16 -10 -13 -10
-17 0 -23 10 -7 10 -13 2 -30 -7 -11 -10 -21 -9 -22 40 -10 49 -8 43 11 -3 11
-2 20 4 20 5 0 9 18 8 40 -1 22 -3 40 -4 40 -2 0 -3 -4 -3 -10z"/>
<path d="M4205 5824 c0 -60 1 -63 12 -37 16 38 17 103 1 103 -9 0 -13 -20 -13
-66z"/>
<path d="M4140 5870 c0 -5 7 -10 16 -10 8 0 12 5 9 10 -3 6 -10 10 -16 10 -5
0 -9 -4 -9 -10z"/>
<path d="M3948 5854 c-16 -16 -7 -56 20 -84 28 -30 117 -81 126 -73 3 3 -21
18 -53 34 -58 29 -67 41 -80 102 -3 16 -9 25 -13 21z"/>
<path d="M4306 5714 c-11 -8 -16 -14 -10 -14 13 0 39 18 34 24 -3 2 -14 -2
-24 -10z"/>
<path d="M2898 5698 c13 -53 100 -158 133 -161 10 -1 19 -4 19 -8 0 -4 7 -10
16 -13 19 -7 13 2 -38 67 -44 56 -51 51 -12 -8 l27 -40 -43 40 c-23 22 -55 64
-72 93 -33 57 -39 63 -30 30z"/>
<path d="M2566 5687 c3 -10 9 -15 12 -12 3 3 0 11 -7 18 -10 9 -11 8 -5 -6z"/>
<path d="M4352 5675 c-6 -14 -8 -25 -3 -25 8 0 23 41 17 47 -1 2 -8 -8 -14
-22z"/>
<path d="M4304 5588 c-15 -24 -32 -49 -37 -55 -6 -8 -6 -13 0 -13 5 0 17 15
26 33 9 17 24 42 33 55 9 12 14 22 12 22 -3 0 -18 -19 -34 -42z"/>
<path d="M2331 5544 c0 -11 3 -14 6 -6 3 7 2 16 -1 19 -3 4 -6 -2 -5 -13z"/>
<path d="M2998 5500 c2 -16 6 -30 8 -30 2 0 4 14 4 30 0 17 -4 30 -8 30 -5 0
-7 -13 -4 -30z"/>
<path d="M2306 5453 c-3 -21 -5 -69 -4 -108 1 -63 2 -59 8 35 8 110 7 136 -4
73z"/>
<path d="M1575 5363 c-8 -20 -13 -38 -10 -41 3 -3 5 -3 5 0 0 3 7 22 15 42 8
20 13 36 10 36 -2 0 -12 -16 -20 -37z"/>
<path d="M4131 5380 c-13 -11 -19 -20 -14 -20 6 0 18 9 28 20 23 25 17 25 -14
0z"/>
<path d="M3488 5383 c12 -2 30 -2 40 0 9 3 -1 5 -23 4 -22 0 -30 -2 -17 -4z"/>
<path d="M3570 5369 c0 -5 11 -9 25 -9 14 0 25 2 25 4 0 2 -11 6 -25 8 -14 3
-25 1 -25 -3z"/>
<path d="M2311 5244 c0 -11 3 -14 6 -6 3 7 2 16 -1 19 -3 4 -6 -2 -5 -13z"/>
<path d="M1667 5210 c-38 -44 -50 -124 -44 -270 3 -69 8 -132 11 -140 4 -8 18
-20 32 -27 23 -11 25 -10 19 5 -29 73 -29 267 -1 400 8 34 12 62 11 62 -2 0
-15 -13 -28 -30z"/>
<path d="M2321 5194 c0 -11 3 -14 6 -6 3 7 2 16 -1 19 -3 4 -6 -2 -5 -13z"/>
<path d="M2334 5111 c3 -35 6 -78 6 -95 1 -25 2 -28 10 -14 7 11 7 41 -1 90
-14 92 -24 104 -15 19z"/>
<path d="M3071 4954 c0 -11 3 -14 6 -6 3 7 2 16 -1 19 -3 4 -6 -2 -5 -13z"/>
<path d="M1421 4754 c0 -11 3 -14 6 -6 3 7 2 16 -1 19 -3 4 -6 -2 -5 -13z"/>
<path d="M1682 4710 c-11 -18 -8 -29 23 -85 26 -46 41 -63 55 -62 23 2 24 4 8
22 -31 34 -38 45 -38 57 0 7 -8 30 -18 51 -16 36 -18 37 -30 17z"/>
<path d="M3100 4674 c0 -8 5 -12 10 -9 6 4 8 11 5 16 -9 14 -15 11 -15 -7z"/>
<path d="M2430 4594 c0 -16 5 -36 11 -44 7 -11 8 -4 3 25 -8 50 -14 58 -14 19z"/>
<path d="M2180 4566 c0 -8 5 -18 10 -21 6 -3 10 1 10 9 0 8 -4 18 -10 21 -5 3
-10 -1 -10 -9z"/>
<path d="M1708 4564 c-7 -7 20 -144 38 -192 9 -23 30 -58 47 -76 18 -19 42
-59 55 -90 24 -61 27 -136 13 -340 l-6 -98 38 -34 c20 -19 37 -43 37 -54 0
-11 4 -20 10 -20 13 0 73 -68 76 -86 5 -32 200 -188 282 -225 34 -16 62 -34
62 -40 0 -5 5 -7 12 -3 7 4 8 3 4 -4 -4 -6 -2 -21 4 -33 11 -20 12 -20 25 -2
18 23 18 38 2 55 -36 38 -43 60 -33 104 6 24 13 44 17 44 3 0 12 -19 18 -42
10 -30 10 -43 2 -46 -6 -2 -11 -10 -11 -19 0 -13 2 -13 15 1 20 20 19 68 -5
161 -26 102 -44 130 -107 165 -48 28 -52 29 -58 11 -3 -12 -19 -21 -40 -25
-20 -4 -42 -17 -52 -32 -45 -63 -49 -66 -64 -47 -12 15 -12 16 3 11 9 -4 19
-1 22 7 3 10 0 12 -11 8 -9 -4 -14 -2 -10 3 7 11 9 165 3 204 -2 14 -4 30 -5
35 0 6 -15 25 -32 43 -37 40 -86 135 -100 200 -7 26 -18 57 -26 68 -12 16 -15
17 -23 4 -7 -10 -8 -1 -6 29 3 25 1 39 -3 32 -11 -17 -45 35 -36 57 11 29 -47
151 -102 212 -28 32 -53 57 -55 54z m77 -216 c7 -20 6 -21 -9 -9 -15 12 -47
100 -45 125 0 12 42 -77 54 -116z m134 -564 c3 -16 1 -17 -13 -5 -19 16 -21
34 -3 29 6 -3 14 -13 16 -24z m104 -81 c-7 -3 -13 -12 -14 -21 0 -11 -2 -13
-6 -4 -6 15 17 46 26 36 3 -4 0 -9 -6 -11z m247 -18 c11 -13 10 -14 -4 -9 -9
3 -16 10 -16 15 0 13 6 11 20 -6z m-170 -138 c0 -6 -16 6 -36 27 -19 20 -33
40 -29 45 3 5 1 12 -5 16 -5 3 -10 11 -10 17 0 7 18 -13 40 -42 22 -29 40 -58
40 -63z m-85 75 c-3 -3 -11 0 -18 7 -9 10 -8 11 6 5 10 -3 15 -9 12 -12z"/>
<path d="M2485 4550 c2 -14 5 -29 5 -35 0 -5 5 -3 11 5 8 11 12 12 16 3 2 -7
9 -13 14 -13 6 0 5 8 -1 20 -6 11 -17 20 -25 20 -7 0 -16 6 -19 13 -4 6 -4 1
-1 -13z"/>
<path d="M4391 4540 c-1 -8 8 -47 19 -85 11 -38 20 -72 20 -75 -1 -14 -40 45
-40 61 0 10 -5 19 -11 19 -15 0 -2 -34 31 -84 15 -22 41 -73 56 -111 27 -70
54 -119 54 -99 0 5 -5 15 -12 22 -7 7 -8 12 -4 12 5 0 3 6 -3 14 -6 7 -13 27
-15 44 -2 18 -8 37 -13 44 -6 7 -23 58 -37 113 -30 110 -44 149 -45 125z"/>
<path d="M1891 4394 c0 -11 3 -14 6 -6 3 7 2 16 -1 19 -3 4 -6 -2 -5 -13z"/>
<path d="M1861 4384 c0 -11 3 -14 6 -6 3 7 2 16 -1 19 -3 4 -6 -2 -5 -13z"/>
<path d="M4380 4354 c0 -10 5 -26 10 -34 8 -11 9 -7 4 15 -8 37 -14 45 -14 19z"/>
<path d="M1871 4349 c0 -9 5 -22 13 -28 11 -9 15 -8 20 5 4 9 4 19 1 22 -3 3
-5 0 -5 -6 0 -19 -18 -14 -23 6 -4 14 -5 14 -6 1z"/>
<path d="M2482 4244 c59 -60 123 -131 143 -157 21 -27 39 -46 42 -44 7 8 -80
117 -136 170 -28 27 -48 53 -45 58 3 5 2 8 -3 7 -5 -2 -22 10 -38 25 -17 16
-39 33 -50 39 -11 6 28 -38 87 -98z"/>
<path d="M4398 4290 c-5 -15 20 -76 28 -68 2 3 -2 22 -9 44 -9 24 -16 33 -19
24z"/>
<path d="M4516 4227 c3 -10 9 -15 12 -12 3 3 0 11 -7 18 -10 9 -11 8 -5 -6z"/>
<path d="M2886 4188 c5 -7 18 -28 31 -47 12 -18 20 -37 17 -42 -3 -5 2 -9 10
-9 9 0 15 -3 14 -7 -5 -16 55 -84 69 -79 8 3 11 2 8 -3 -3 -5 -1 -12 4 -15 13
-9 24 11 14 27 -4 6 -8 18 -9 26 -2 7 -11 23 -22 35 -11 11 -31 34 -46 50 -14
16 -26 33 -26 38 0 5 -4 6 -10 3 -5 -3 -15 3 -22 15 -7 11 -19 20 -26 20 -8 0
-10 -5 -6 -12z"/>
<path d="M2895 4130 c3 -5 8 -10 11 -10 2 0 4 5 4 10 0 6 -5 10 -11 10 -5 0
-7 -4 -4 -10z"/>
<path d="M2500 4013 c0 -15 109 -153 121 -153 15 0 11 7 -48 77 -75 91 -73 89
-73 76z"/>
<path d="M2994 3985 c27 -19 54 -35 60 -35 5 0 -13 16 -40 35 -27 19 -53 35
-59 35 -5 0 12 -16 39 -35z"/>
<path d="M2127 3799 c7 -7 15 -10 18 -7 3 3 -2 9 -12 12 -14 6 -15 5 -6 -5z"/>
<path d="M4491 3614 c0 -11 3 -14 6 -6 3 7 2 16 -1 19 -3 4 -6 -2 -5 -13z"/>
<path d="M5107 3562 c12 -9 40 -28 63 -42 39 -23 79 -60 130 -120 12 -14 7 -3
-12 24 -30 45 -168 155 -193 155 -5 0 0 -7 12 -17z"/>
<path d="M5130 3456 c0 -2 16 -21 36 -42 20 -22 31 -30 25 -19 -20 38 -61 78
-61 61z"/>
<path d="M5326 3350 c4 -14 11 -50 15 -80 l8 -55 -3 62 c-2 33 -9 69 -15 80
-10 16 -11 15 -5 -7z"/>
<path d="M1704 3321 c20 -22 26 -25 26 -13 0 4 -10 13 -22 21 -23 14 -23 14
-4 -8z"/>
<path d="M5326 3195 c-9 -26 -7 -32 5 -12 6 10 9 21 6 23 -2 3 -7 -2 -11 -11z"/>
<path d="M1650 3165 c0 -14 4 -25 9 -25 4 0 6 11 3 25 -2 14 -6 25 -8 25 -2 0
-4 -11 -4 -25z"/>
<path d="M5302 3148 c-14 -14 -16 -28 -3 -28 5 0 11 9 14 20 6 23 5 24 -11 8z"/>
<path d="M5200 3031 c-55 -45 -108 -72 -113 -58 -3 7 -9 1 -15 -13 -6 -14 -20
-33 -31 -42 -48 -40 -8 -164 76 -238 52 -45 98 -53 126 -22 23 26 22 27 -23
29 -75 2 -108 42 -136 163 -7 32 -12 44 -13 29 -2 -44 30 -133 57 -162 14 -15
43 -33 64 -39 40 -12 42 -28 2 -28 -35 0 -108 71 -140 137 -23 46 -26 60 -18
91 6 26 15 37 27 36 9 -1 14 2 12 7 -3 4 33 33 80 64 47 31 85 60 85 66 0 12
0 12 -40 -20z"/>
<path d="M1653 2995 c0 -33 2 -45 4 -27 2 18 2 45 0 60 -2 15 -4 0 -4 -33z"/>
<path d="M5422 3015 c0 -11 4 -31 8 -45 6 -20 8 -21 8 -5 0 11 -4 31 -8 45 -6
20 -8 21 -8 5z"/>
<path d="M5732 2913 c80 -145 118 -201 118 -173 0 6 5 8 12 4 7 -4 8 -3 4 5
-4 6 -11 9 -16 6 -5 -3 -21 14 -36 37 -80 130 -114 179 -82 121z"/>
<path d="M5442 2920 c0 -14 2 -19 5 -12 2 6 2 18 0 25 -3 6 -5 1 -5 -13z"/>
<path d="M1666 2835 c3 -55 10 -120 14 -145 10 -50 5 28 -11 170 -7 67 -7 64
-3 -25z"/>
<path d="M2120 2895 c0 -5 10 -21 21 -35 13 -17 17 -18 10 -5 -17 33 -31 51
-31 40z"/>
<path d="M5451 2874 c0 -11 3 -14 6 -6 3 7 2 16 -1 19 -3 4 -6 -2 -5 -13z"/>
<path d="M5461 2834 c0 -11 3 -14 6 -6 3 7 2 16 -1 19 -3 4 -6 -2 -5 -13z"/>
<path d="M1842 2800 c0 -14 2 -19 5 -12 2 6 2 18 0 25 -3 6 -5 1 -5 -13z"/>
<path d="M5471 2808 c-1 -4 13 -58 29 -120 93 -344 133 -535 180 -853 17 -115
42 -284 56 -375 13 -91 25 -185 26 -210 1 -41 2 -42 5 -10 10 77 -101 827
-163 1105 -28 124 -131 482 -133 463z"/>
<path d="M1851 2744 c0 -11 3 -14 6 -6 3 7 2 16 -1 19 -3 4 -6 -2 -5 -13z"/>
<path d="M2290 2715 c7 -8 17 -15 22 -15 6 0 5 7 -2 15 -7 8 -17 15 -22 15 -6
0 -5 -7 2 -15z"/>
<path d="M1861 2704 c0 -11 3 -14 6 -6 3 7 2 16 -1 19 -3 4 -6 -2 -5 -13z"/>
<path d="M5868 2683 c65 -141 86 -176 92 -158 5 15 11 12 39 -21 18 -21 28
-30 23 -19 -6 11 -24 33 -41 50 -18 16 -52 64 -77 107 -50 84 -63 100 -36 41z"/>
<path d="M1871 2664 c0 -11 3 -14 6 -6 3 7 2 16 -1 19 -3 4 -6 -2 -5 -13z"/>
<path d="M1692 2605 c0 -16 4 -43 8 -60 11 -42 11 -1 1 50 -7 34 -9 35 -9 10z"/>
<path d="M1901 2564 c-1 -5 10 -41 23 -80 14 -38 25 -64 25 -58 1 5 -10 41
-23 80 -14 38 -25 64 -25 58z"/>
<path d="M4652 2515 c0 -16 2 -22 5 -12 2 9 2 23 0 30 -3 6 -5 -1 -5 -18z"/>
<path d="M1712 2475 c0 -16 2 -22 5 -12 2 9 2 23 0 30 -3 6 -5 -1 -5 -18z"/>
<path d="M1722 2410 c0 -19 2 -27 5 -17 2 9 2 25 0 35 -3 9 -5 1 -5 -18z"/>
<path d="M1951 2400 c0 -8 4 -24 9 -35 5 -13 9 -14 9 -5 0 8 -4 24 -9 35 -5
13 -9 14 -9 5z"/>
<path d="M5802 2355 c0 -16 2 -22 5 -12 2 9 2 23 0 30 -3 6 -5 -1 -5 -18z"/>
<path d="M1732 2355 c0 -11 4 -31 8 -45 6 -20 8 -21 8 -5 0 11 -4 31 -8 45 -6
20 -8 21 -8 5z"/>
<path d="M4663 2295 c0 -33 2 -45 4 -27 2 18 2 45 0 60 -2 15 -4 0 -4 -33z"/>
<path d="M2820 2294 c0 -17 17 -36 24 -26 3 5 -1 15 -9 22 -8 7 -15 9 -15 4z"/>
<path d="M1752 2260 c0 -14 4 -36 8 -50 6 -20 8 -21 8 -5 0 11 -4 34 -8 50 -7
27 -8 27 -8 5z"/>
<path d="M1991 2264 c0 -11 3 -14 6 -6 3 7 2 16 -1 19 -3 4 -6 -2 -5 -13z"/>
<path d="M2011 2194 c0 -11 3 -14 6 -6 3 7 2 16 -1 19 -3 4 -6 -2 -5 -13z"/>
<path d="M2948 2203 c7 -3 16 -2 19 1 4 3 -2 6 -13 5 -11 0 -14 -3 -6 -6z"/>
<path d="M3010 2190 c0 -5 5 -10 11 -10 5 0 7 5 4 10 -3 6 -8 10 -11 10 -2 0
-4 -4 -4 -10z"/>
<path d="M1772 2160 c0 -14 2 -19 5 -12 2 6 2 18 0 25 -3 6 -5 1 -5 -13z"/>
<path d="M2021 2154 c0 -11 3 -14 6 -6 3 7 2 16 -1 19 -3 4 -6 -2 -5 -13z"/>
<path d="M2902 2154 c10 -10 20 -16 22 -13 3 3 -5 11 -17 18 -21 13 -21 12 -5
-5z"/>
<path d="M3060 2156 c0 -2 7 -7 16 -10 8 -3 12 -2 9 4 -6 10 -25 14 -25 6z"/>
<path d="M5802 1990 c-1 -91 -9 -232 -17 -315 -16 -161 -18 -191 -11 -184 15
14 36 334 34 489 l-4 175 -2 -165z"/>
<path d="M1781 2114 c0 -11 3 -14 6 -6 3 7 2 16 -1 19 -3 4 -6 -2 -5 -13z"/>
<path d="M2031 2114 c0 -11 3 -14 6 -6 3 7 2 16 -1 19 -3 4 -6 -2 -5 -13z"/>
<path d="M2955 2111 c-3 -5 0 -13 6 -17 7 -4 9 -3 5 4 -3 5 0 13 6 15 9 4 10
6 1 6 -6 1 -14 -3 -18 -8z"/>
<path d="M1311 2074 c0 -11 3 -14 6 -6 3 7 2 16 -1 19 -3 4 -6 -2 -5 -13z"/>
<path d="M1792 2075 c0 -21 25 -107 27 -90 0 6 -6 33 -13 60 -8 28 -14 41 -14
30z"/>
<path d="M2041 2074 c0 -11 3 -14 6 -6 3 7 2 16 -1 19 -3 4 -6 -2 -5 -13z"/>
<path d="M3130 2086 c0 -2 8 -10 18 -17 15 -13 16 -12 3 4 -13 16 -21 21 -21
13z"/>
<path d="M3160 2088 c0 -2 9 -11 20 -21 11 -9 20 -13 20 -7 0 5 -9 14 -20 20
-11 6 -20 9 -20 8z"/>
<path d="M4663 2045 c0 -27 2 -38 4 -22 2 15 2 37 0 50 -2 12 -4 0 -4 -28z"/>
<path d="M2061 1994 c0 -11 3 -14 6 -6 3 7 2 16 -1 19 -3 4 -6 -2 -5 -13z"/>
<path d="M1821 1954 c0 -11 3 -14 6 -6 3 7 2 16 -1 19 -3 4 -6 -2 -5 -13z"/>
<path d="M2071 1954 c0 -11 3 -14 6 -6 3 7 2 16 -1 19 -3 4 -6 -2 -5 -13z"/>
<path d="M3310 1967 c0 -2 15 -16 33 -33 l32 -29 -29 33 c-28 30 -36 37 -36
29z"/>
<path d="M4652 1920 c0 -14 2 -19 5 -12 2 6 2 18 0 25 -3 6 -5 1 -5 -13z"/>
<path d="M3185 1900 c9 -16 18 -30 21 -30 2 0 -2 14 -11 30 -9 17 -18 30 -21
30 -2 0 2 -13 11 -30z"/>
<path d="M3306 1921 c-3 -4 6 -19 20 -32 22 -21 24 -21 18 -4 -8 19 -7 19 17
3 18 -11 26 -13 26 -4 0 7 -5 13 -11 14 -6 0 -20 3 -31 6 -11 2 -24 5 -28 5
-5 1 -5 6 -2 11 3 6 4 10 1 10 -3 0 -7 -4 -10 -9z"/>
<path d="M2091 1884 c0 -11 3 -14 6 -6 3 7 2 16 -1 19 -3 4 -6 -2 -5 -13z"/>
<path d="M3166 1887 c3 -10 9 -15 12 -12 3 3 0 11 -7 18 -10 9 -11 8 -5 -6z"/>
<path d="M1166 1855 c4 -8 11 -15 16 -15 6 0 5 6 -2 15 -7 8 -14 15 -16 15 -2
0 -1 -7 2 -15z"/>
<path d="M3438 1839 c14 -16 20 -33 17 -45 -6 -18 -6 -18 5 0 10 15 8 22 -16
45 l-28 26 22 -26z"/>
<path d="M302 1825 c-56 -13 -81 -29 -67 -42 4 -5 10 -3 12 4 2 7 31 18 64 24
33 6 62 16 65 20 7 12 -9 10 -74 -6z"/>
<path d="M3196 1815 c4 -8 8 -15 10 -15 2 0 4 7 4 15 0 8 -4 15 -10 15 -5 0
-7 -7 -4 -15z"/>
<path d="M6301 1814 c0 -11 3 -14 6 -6 3 7 2 16 -1 19 -3 4 -6 -2 -5 -13z"/>
<path d="M526 1813 c-7 -8 59 -38 144 -65 84 -27 147 -59 240 -121 83 -56 266
-191 288 -213 7 -8 16 -14 20 -14 4 0 24 -16 46 -35 21 -19 56 -45 77 -57 21
-12 39 -25 39 -30 0 -4 29 -31 65 -59 39 -30 62 -56 58 -62 -3 -7 -3 -9 2 -5
7 7 64 -49 65 -64 0 -3 12 -20 26 -37 14 -17 22 -36 18 -42 -4 -8 -3 -9 4 -5
13 8 61 -41 62 -61 0 -7 4 -13 10 -13 15 0 80 -92 73 -104 -3 -6 -3 -8 2 -4
11 11 37 -20 29 -34 -4 -7 -4 -10 1 -6 11 10 35 -11 35 -30 0 -13 -2 -13 -13
2 -12 16 -14 16 -14 2 0 -16 9 -20 35 -17 6 1 12 -5 12 -13 0 -8 9 -17 19 -21
11 -3 22 -13 25 -21 5 -13 3 -13 -16 1 -24 16 -58 20 -58 7 0 -5 27 -21 59
-36 64 -29 146 -84 138 -92 -3 -3 -25 -7 -50 -9 -75 -6 -124 -23 -130 -45 -3
-11 -1 -22 3 -25 10 -6 154 13 186 25 13 5 24 14 24 20 0 20 21 9 63 -31 23
-22 37 -38 30 -35 -24 13 -31 -27 -20 -111 6 -46 15 -83 19 -83 4 0 8 9 8 21
0 12 4 17 11 14 7 -5 10 18 7 74 -3 76 5 103 19 64 9 -26 55 -73 65 -67 4 3
12 -3 16 -13 10 -26 62 -112 94 -157 15 -21 28 -47 28 -57 0 -10 11 -34 24
-54 14 -20 27 -49 31 -65 5 -24 12 -30 32 -30 23 0 24 3 17 28 -4 15 -9 47
-10 72 -1 25 -10 81 -19 125 -9 44 -22 112 -30 150 -8 45 -14 58 -14 38 -1
-24 -5 -31 -16 -27 -12 5 -15 -2 -15 -31 0 -22 -4 -34 -10 -30 -6 4 -8 11 -4
16 3 5 2 9 -3 7 -11 -2 -73 35 -73 44 0 4 -8 4 -17 1 -12 -5 -15 -2 -10 10 3
9 3 16 -1 14 -11 -3 -102 76 -96 85 3 4 -2 5 -10 2 -9 -3 -16 -1 -16 4 0 6 -9
14 -20 17 -11 4 -18 10 -15 15 3 4 -3 14 -13 21 -15 13 -16 12 -3 -3 21 -28 1
-21 -54 18 -27 19 -68 46 -90 60 -22 15 -48 43 -58 63 -10 21 -42 67 -70 104
-92 117 -102 131 -100 139 2 4 -1 8 -6 8 -6 0 -38 35 -73 78 -56 69 -58 73
-20 40 84 -75 54 -35 -48 65 -58 56 -116 122 -130 146 -14 24 -35 55 -47 70
-13 14 -23 29 -23 34 0 4 -16 30 -35 58 -25 34 -34 57 -31 72 3 12 3 16 0 10
-3 -7 -9 -13 -14 -13 -5 0 -10 6 -12 13 -6 24 -103 188 -105 180 -5 -13 111
-237 143 -278 15 -20 23 -39 18 -46 -4 -8 -3 -9 4 -5 7 4 18 -7 28 -25 9 -18
25 -41 35 -52 45 -48 3 -25 -112 61 -234 177 -434 319 -481 343 -31 16 -92 41
-135 55 -43 14 -94 34 -114 45 -20 10 -39 15 -43 12z m1712 -1413 c17 -27 10
-25 -19 6 -13 14 -17 23 -9 19 9 -3 21 -14 28 -25z"/>
<path d="M1180 1815 c0 -5 5 -17 10 -25 5 -8 10 -10 10 -5 0 6 -5 17 -10 25
-5 8 -10 11 -10 5z"/>
<path d="M1613 1775 c27 -55 65 -139 102 -230 39 -94 55 -120 55 -93 0 30
-135 315 -162 343 -6 6 -4 -3 5 -20z"/>
<path d="M6227 1721 c-59 -131 -186 -321 -309 -464 -70 -81 -86 -97 -97 -97
-18 0 -32 -65 -22 -106 l9 -39 1 35 c1 52 34 104 128 205 73 78 173 211 173
231 0 3 26 49 58 103 58 95 107 199 99 207 -2 2 -20 -31 -40 -75z"/>
<path d="M3211 1785 c0 -5 6 -21 14 -35 8 -14 14 -20 14 -15 0 6 -6 21 -14 35
-8 14 -14 21 -14 15z"/>
<path d="M6312 1735 c-1 -33 -5 -71 -7 -85 l-6 -25 11 25 c6 13 9 51 7 85 l-3
60 -2 -60z"/>
<path d="M1151 1770 c0 -8 4 -22 9 -30 12 -18 12 -2 0 25 -6 13 -9 15 -9 5z"/>
<path d="M1180 1765 c0 -5 5 -17 10 -25 5 -8 10 -10 10 -5 0 6 -5 17 -10 25
-5 8 -10 11 -10 5z"/>
<path d="M1215 1740 c-3 -5 -1 -10 4 -10 6 0 11 5 11 10 0 6 -2 10 -4 10 -3 0
-8 -4 -11 -10z"/>
<path d="M3485 1740 c3 -5 8 -10 11 -10 2 0 4 5 4 10 0 6 -5 10 -11 10 -5 0
-7 -4 -4 -10z"/>
<path d="M3260 1721 c0 -6 4 -13 10 -16 6 -3 7 1 4 9 -7 18 -14 21 -14 7z"/>
<path d="M1235 1710 c3 -5 8 -10 11 -10 2 0 4 5 4 10 0 6 -5 10 -11 10 -5 0
-7 -4 -4 -10z"/>
<path d="M3240 1711 c0 -6 4 -13 10 -16 6 -3 7 1 4 9 -7 18 -14 21 -14 7z"/>
<path d="M2152 1700 c0 -8 6 -31 13 -50 7 -19 13 -28 13 -20 0 8 -6 31 -13 50
-7 19 -13 28 -13 20z"/>
<path d="M3291 1644 c0 -11 3 -14 6 -6 3 7 2 16 -1 19 -3 4 -6 -2 -5 -13z"/>
<path d="M1262 1630 c0 -14 2 -19 5 -12 2 6 2 18 0 25 -3 6 -5 1 -5 -13z"/>
<path d="M2185 1590 c36 -158 74 -293 74 -260 0 34 -39 188 -59 235 -11 28
-18 39 -15 25z"/>
<path d="M6276 1583 c-6 -14 -5 -15 5 -6 7 7 10 15 7 18 -3 3 -9 -2 -12 -12z"/>
<path d="M4531 1473 c-1 -6 -4 -20 -7 -30 -5 -17 -5 -17 6 0 6 10 9 23 6 30
-3 9 -5 9 -5 0z"/>
<path d="M6113 1363 c-42 -54 -83 -102 -90 -106 -7 -4 -13 -13 -13 -18 0 -16
34 12 82 69 44 51 112 152 103 152 -3 0 -39 -44 -82 -97z"/>
<path d="M4451 1291 l-63 -129 -8 -194 c-4 -106 -6 -194 -5 -196 5 -6 14 112
20 258 l5 135 61 123 c34 68 59 125 57 127 -2 3 -33 -53 -67 -124z"/>
<path d="M2152 1405 c4 -4 0 -14 -10 -21 -9 -7 -14 -15 -11 -18 3 -3 14 2 23
13 14 15 15 21 4 27 -7 4 -10 4 -6 -1z"/>
<path d="M1390 1389 c0 -5 5 -7 10 -4 6 3 10 8 10 11 0 2 -4 4 -10 4 -5 0 -10
-5 -10 -11z"/>
<path d="M2261 1294 c0 -11 3 -14 6 -6 3 7 2 16 -1 19 -3 4 -6 -2 -5 -13z"/>
<path d="M6228 1273 c-16 -2 -28 -10 -28 -18 0 -8 8 -11 23 -8 18 4 19 3 7 -6
-12 -8 -5 -11 31 -11 25 0 49 -4 55 -8 5 -5 33 -7 61 -4 45 3 51 6 38 18 -7 8
-25 14 -38 14 -13 0 -46 3 -73 7 -46 7 -47 8 -19 14 l30 7 -30 -1 c-16 0 -42
-2 -57 -4z"/>
<path d="M2271 1254 c0 -11 3 -14 6 -6 3 7 2 16 -1 19 -3 4 -6 -2 -5 -13z"/>
<path d="M6500 1250 c-22 -7 -21 -8 13 -9 20 -1 37 4 37 9 0 11 -14 11 -50 0z"/>
<path d="M2281 1209 c0 -13 4 -33 9 -44 7 -14 8 -8 3 20 -7 46 -13 59 -12 24z"/>
<path d="M5971 1205 c-25 -27 -16 -26 37 1 19 10 20 13 7 18 -21 8 -16 10 -44
-19z"/>
<path d="M6378 1203 c7 -3 16 -2 19 1 4 3 -2 6 -13 5 -11 0 -14 -3 -6 -6z"/>
<path d="M960 1152 c0 -4 10 -13 22 -21 12 -7 70 -53 129 -102 59 -49 110 -89
113 -89 8 0 -135 132 -180 166 -19 15 -33 28 -32 30 5 4 103 -29 163 -56 47
-20 204 -108 215 -120 3 -3 31 -25 62 -48 34 -26 55 -49 52 -57 -3 -7 -1 -16
5 -20 7 -4 8 0 4 12 -7 17 -5 17 22 -1 57 -36 115 -88 109 -97 -3 -5 1 -6 9
-4 7 3 41 -20 76 -52 88 -82 89 -83 101 -83 11 0 14 30 3 30 -5 0 -21 12 -37
26 -24 21 -27 28 -15 36 11 8 10 9 -4 4 -17 -5 -32 5 -94 62 -13 12 -27 22
-31 22 -4 0 -24 16 -46 35 -21 19 -42 35 -48 35 -5 0 -6 5 -3 10 4 6 1 9 -7 8
-7 -2 -12 2 -11 9 2 7 -3 10 -11 7 -8 -3 -17 0 -22 7 -5 8 -3 10 6 4 9 -5 11
-4 6 4 -4 6 -11 9 -16 6 -8 -5 -48 17 -160 86 -161 101 -380 188 -380 151z"/>
<path d="M5772 1120 c0 -19 2 -27 5 -17 2 9 2 25 0 35 -3 9 -5 1 -5 -18z"/>
<path d="M2302 1120 c0 -14 2 -19 5 -12 2 6 2 18 0 25 -3 6 -5 1 -5 -13z"/>
<path d="M2312 1065 c0 -16 2 -22 5 -12 2 9 2 23 0 30 -3 6 -5 -1 -5 -18z"/>
<path d="M5900 1081 c0 -6 10 -11 23 -12 74 -3 116 -12 184 -39 84 -32 108
-33 46 -2 -76 39 -253 76 -253 53z"/>
<path d="M6715 1050 c3 -5 8 -10 11 -10 2 0 4 5 4 10 0 6 -5 10 -11 10 -5 0
-7 -4 -4 -10z"/>
<path d="M2322 1010 c0 -14 2 -19 5 -12 2 6 2 18 0 25 -3 6 -5 1 -5 -13z"/>
<path d="M5859 1018 c0 -2 -3 -16 -5 -31 -4 -20 -1 -27 7 -22 19 13 91 7 179
-15 79 -18 133 -26 103 -13 -7 2 -13 11 -13 18 0 13 -4 15 -120 45 -63 17
-148 26 -151 18z"/>
<path d="M1756 954 c16 -21 31 -41 34 -44 3 -3 14 -18 24 -33 9 -16 20 -26 23
-23 6 5 -80 121 -99 132 -6 4 2 -10 18 -32z"/>
<path d="M6280 971 c0 -10 26 -22 55 -26 126 -16 125 -16 60 -1 -33 8 -72 19
-87 25 -16 6 -28 7 -28 2z"/>
<path d="M2332 950 c0 -14 2 -19 5 -12 2 6 2 18 0 25 -3 6 -5 1 -5 -13z"/>
<path d="M1292 882 c69 -53 88 -65 88 -59 0 6 -137 107 -145 107 -3 0 22 -22
57 -48z"/>
<path d="M6480 920 c14 -4 34 -8 45 -8 16 0 15 2 -5 8 -14 4 -34 8 -45 8 -16
0 -15 -2 5 -8z"/>
<path d="M2342 890 c0 -14 2 -19 5 -12 2 6 2 18 0 25 -3 6 -5 1 -5 -13z"/>
<path d="M6130 896 c14 -9 32 -15 40 -15 13 0 13 1 0 8 -8 5 -26 12 -40 15
l-25 7 25 -15z"/>
<path d="M6372 903 c-8 -3 13 -18 47 -35 38 -19 59 -34 54 -41 -3 -7 -3 -9 1
-6 4 4 37 -8 74 -26 37 -17 84 -38 105 -46 20 -7 37 -17 37 -21 0 -4 5 -8 11
-8 22 0 -4 20 -73 55 -40 21 -109 60 -154 86 -45 27 -83 49 -85 48 -2 0 -10
-3 -17 -6z"/>
<path d="M6745 900 c-3 -6 1 -7 9 -4 18 7 21 14 7 14 -6 0 -13 -4 -16 -10z"/>
<path d="M6610 886 c0 -2 7 -7 16 -10 8 -3 12 -2 9 4 -6 10 -25 14 -25 6z"/>
<path d="M6270 870 c0 -5 5 -10 10 -10 6 0 10 5 10 10 0 6 -4 10 -10 10 -5 0
-10 -4 -10 -10z"/>
<path d="M6651 867 c2 -1 13 -9 24 -17 19 -14 19 -14 6 3 -7 9 -18 17 -24 17
-6 0 -8 -1 -6 -3z"/>
<path d="M5825 795 c3 -38 19 -137 36 -220 21 -101 30 -174 29 -225 -1 -41 -2
-137 -1 -212 1 -116 3 -138 16 -138 30 0 14 385 -25 573 -11 56 -29 145 -40
197 l-20 95 5 -70z"/>
<path d="M5852 835 c0 -16 2 -22 5 -12 2 9 2 23 0 30 -3 6 -5 -1 -5 -18z"/>
<path d="M670 838 c-43 -7 -70 -28 -70 -54 0 -7 4 -15 9 -18 5 -4 7 2 4 12 -3
12 5 23 23 32 37 20 391 20 404 1 6 -11 8 -11 12 0 6 17 193 -32 358 -92 57
-21 106 -36 108 -34 12 12 -274 113 -368 130 -173 33 -375 42 -480 23z"/>
<path d="M6700 837 c0 -3 19 -20 43 -38 23 -19 36 -26 28 -16 -16 20 -71 61
-71 54z"/>
<path d="M2351 814 c0 -11 3 -14 6 -6 3 7 2 16 -1 19 -3 4 -6 -2 -5 -13z"/>
<path d="M768 813 c6 -2 18 -2 25 0 6 3 1 5 -13 5 -14 0 -19 -2 -12 -5z"/>
<path d="M878 813 c7 -3 16 -2 19 1 4 3 -2 6 -13 5 -11 0 -14 -3 -6 -6z"/>
<path d="M1395 810 c3 -6 27 -24 53 -42 26 -17 49 -35 52 -38 3 -4 30 -23 60
-43 51 -35 55 -50 7 -26 -16 7 -14 3 7 -15 l29 -24 -59 -7 c-82 -9 -89 -13
-22 -14 31 -1 68 -5 82 -11 14 -5 44 -10 68 -11 24 -1 47 -4 51 -7 8 -4 -63
-48 -95 -59 -10 -3 -18 -12 -18 -20 0 -19 41 -10 87 18 28 17 93 88 93 101 0
3 -23 6 -51 7 -54 2 -102 22 -161 68 -73 57 -191 136 -183 123z"/>
<path d="M768 793 c6 -2 18 -2 25 0 6 3 1 5 -13 5 -14 0 -19 -2 -12 -5z"/>
<path d="M883 793 c9 -2 23 -2 30 0 6 3 -1 5 -18 5 -16 0 -22 -2 -12 -5z"/>
<path d="M978 793 c6 -2 18 -2 25 0 6 3 1 5 -13 5 -14 0 -19 -2 -12 -5z"/>
<path d="M728 783 c7 -3 16 -2 19 1 4 3 -2 6 -13 5 -11 0 -14 -3 -6 -6z"/>
<path d="M2361 764 c0 -11 3 -14 6 -6 3 7 2 16 -1 19 -3 4 -6 -2 -5 -13z"/>
<path d="M663 753 c9 -2 25 -2 35 0 9 3 1 5 -18 5 -19 0 -27 -2 -17 -5z"/>
<path d="M965 750 c83 -4 160 -8 173 -9 33 -2 18 -19 -23 -27 -19 -3 -35 -10
-35 -14 0 -5 -29 -18 -65 -30 -36 -12 -104 -43 -152 -69 -49 -26 -108 -57
-133 -70 -25 -12 -56 -31 -70 -41 -22 -17 -23 -20 -6 -20 10 0 56 25 101 55
80 54 317 165 352 165 10 0 31 7 47 15 23 12 32 13 45 3 9 -7 13 -8 9 -4 -4 5
0 15 10 22 9 7 13 16 9 21 -5 4 -99 9 -210 9 l-202 1 150 -7z"/>
<path d="M4371 734 c-1 -11 17 -70 38 -130 22 -60 40 -101 40 -92 1 9 -11 48
-25 85 -14 37 -31 88 -39 113 -7 25 -14 36 -14 24z"/>
<path d="M1657 719 c7 -7 15 -10 18 -7 3 3 -2 9 -12 12 -14 6 -15 5 -6 -5z"/>
<path d="M2372 690 c0 -14 2 -19 5 -12 2 6 2 18 0 25 -3 6 -5 1 -5 -13z"/>
<path d="M6726 697 c3 -10 9 -15 12 -12 3 3 0 11 -7 18 -10 9 -11 8 -5 -6z"/>
<path d="M3476 655 c-9 -26 -7 -32 5 -12 6 10 9 21 6 23 -2 3 -7 -2 -11 -11z"/>
<path d="M1084 644 c-18 -14 -18 -15 4 -4 12 6 22 13 22 15 0 8 -5 6 -26 -11z"/>
<path d="M3849 618 c-41 -57 -125 -146 -175 -186 -93 -74 -431 -418 -421 -428
3 -3 94 86 204 197 109 111 217 214 240 229 23 15 63 53 90 86 26 32 50 61 53
64 17 14 50 70 41 70 -5 0 -20 -14 -32 -32z"/>
<path d="M6760 647 c0 -2 14 -30 30 -63 17 -32 27 -48 24 -34 -11 43 -54 120
-54 97z"/>
<path d="M1010 620 c-8 -5 -10 -10 -5 -10 6 0 17 5 25 10 8 5 11 10 5 10 -5 0
-17 -5 -25 -10z"/>
<path d="M4640 610 c6 -11 13 -20 16 -20 2 0 0 9 -6 20 -6 11 -13 20 -16 20
-2 0 0 -9 6 -20z"/>
<path d="M4565 610 c3 -6 24 -29 45 -53 21 -23 66 -77 99 -121 34 -43 61 -74
61 -68 0 11 -197 252 -206 252 -3 0 -2 -5 1 -10z"/>
<path d="M1865 599 c-4 -6 2 -13 14 -16 12 -3 21 -9 21 -14 0 -5 5 -9 11 -9 8
0 8 5 -1 15 -7 8 -19 15 -27 15 -8 0 -11 5 -8 10 3 6 4 10 1 10 -3 0 -8 -5
-11 -11z"/>
<path d="M985 590 c-3 -5 -1 -10 4 -10 6 0 11 5 11 10 0 6 -2 10 -4 10 -3 0
-8 -4 -11 -10z"/>
<path d="M1278 593 c7 -3 16 -2 19 1 4 3 -2 6 -13 5 -11 0 -14 -3 -6 -6z"/>
<path d="M3437 565 c-24 -50 -20 -58 4 -12 11 22 19 41 17 43 -3 2 -12 -12
-21 -31z"/>
<path d="M2392 570 c0 -14 2 -19 5 -12 2 6 2 18 0 25 -3 6 -5 1 -5 -13z"/>
<path d="M5686 577 c3 -10 9 -15 12 -12 3 3 0 11 -7 18 -10 9 -11 8 -5 -6z"/>
<path d="M4690 564 c0 -12 38 -74 46 -74 3 0 -5 17 -17 38 -28 46 -29 47 -29
36z"/>
<path d="M6853 500 c0 -36 2 -50 4 -32 2 17 2 47 0 65 -2 17 -4 3 -4 -33z"/>
<path d="M822 531 c-9 -5 -4 -8 16 -7 17 1 28 4 25 9 -6 9 -25 9 -41 -2z"/>
<path d="M2402 520 c0 -14 2 -19 5 -12 2 6 2 18 0 25 -3 6 -5 1 -5 -13z"/>
<path d="M2412 470 c0 -14 2 -19 5 -12 2 6 2 18 0 25 -3 6 -5 1 -5 -13z"/>
<path d="M3396 475 c-9 -26 -7 -32 5 -12 6 10 9 21 6 23 -2 3 -7 -2 -11 -11z"/>
<path d="M765 470 c-3 -6 1 -7 9 -4 18 7 21 14 7 14 -6 0 -13 -4 -16 -10z"/>
<path d="M4750 460 c6 -11 13 -20 16 -20 2 0 0 9 -6 20 -6 11 -13 20 -16 20
-2 0 0 -9 6 -20z"/>
<path d="M2536 415 c-11 -92 -19 -270 -13 -264 8 7 31 308 24 315 -2 2 -7 -20
-11 -51z"/>
<path d="M685 450 c-3 -6 1 -7 9 -4 18 7 21 14 7 14 -6 0 -13 -4 -16 -10z"/>
<path d="M4337 432 c12 -11 39 -50 60 -88 20 -38 62 -94 93 -124 112 -112 235
-220 249 -220 8 0 -12 23 -45 52 -116 102 -250 244 -268 283 -22 48 -41 71
-81 97 -29 19 -29 19 -8 0z"/>
<path d="M2296 418 c3 -5 10 -6 15 -3 13 9 11 12 -6 12 -8 0 -12 -4 -9 -9z"/>
<path d="M6863 375 c0 -33 2 -45 4 -27 2 18 2 45 0 60 -2 15 -4 0 -4 -33z"/>
<path d="M628 413 c7 -3 16 -2 19 1 4 3 -2 6 -13 5 -11 0 -14 -3 -6 -6z"/>
<path d="M3317 292 c-20 -42 -64 -123 -98 -180 -34 -56 -60 -105 -57 -107 7
-8 122 190 163 279 20 43 34 80 32 82 -2 2 -20 -31 -40 -74z"/>
<path d="M4835 336 c10 -14 19 -26 22 -26 7 0 -17 39 -28 46 -6 3 -3 -5 6 -20z"/>
<path d="M4870 297 c0 -6 47 -78 57 -87 3 -3 0 6 -7 20 -15 29 -50 76 -50 67z"/>
<path d="M6873 210 c0 -47 2 -66 4 -42 2 23 2 61 0 85 -2 23 -4 4 -4 -43z"/>
<path d="M265 219 c-89 -13 -99 -18 -21 -12 67 6 145 22 101 21 -11 0 -47 -4
-80 -9z"/>
<path d="M1136 194 c-45 -16 -96 -51 -96 -65 0 -5 17 2 37 15 20 14 39 24 41
22 2 -3 -21 -37 -52 -78 -31 -40 -56 -76 -56 -80 0 -19 19 -2 67 60 29 38 61
77 71 88 15 15 38 57 29 53 -1 -1 -19 -8 -41 -15z"/>
<path d="M4930 196 c0 -2 8 -10 18 -17 15 -13 16 -12 3 4 -13 16 -21 21 -21
13z"/>
<path d="M4974 147 c3 -9 24 -45 47 -80 51 -75 48 -71 54 -65 3 3 -10 25 -27
49 -18 24 -43 60 -56 79 -13 19 -21 27 -18 17z"/>
<path d="M995 110 c-3 -6 1 -7 9 -4 18 7 21 14 7 14 -6 0 -13 -4 -16 -10z"/>
<path d="M920 59 c-22 -18 -22 -19 -3 -10 12 6 25 16 28 21 9 15 3 12 -25 -11z"/>
</g>
</svg>
